<?xml version="1.0" encoding="UTF-8" standalone="no"?>
<!DOCTYPE svg PUBLIC "-//W3C//DTD SVG 1.1//EN"
 "http://www.w3.org/Graphics/SVG/1.1/DTD/svg11.dtd">
<!-- Generated by graphviz version 2.43.0 (0)
 -->
<!-- Title: dependency&#45;cruiser output Pages: 1 -->
<svg width="644pt" height="669pt"
 viewBox="0.00 0.00 644.00 669.12" xmlns="http://www.w3.org/2000/svg" xmlns:xlink="http://www.w3.org/1999/xlink">
<g id="graph0" class="graph" transform="scale(1 1) rotate(0) translate(4 665.12)">
<title>dependency&#45;cruiser output</title>
<polygon fill="white" stroke="transparent" points="-4,4 -4,-665.12 640,-665.12 640,4 -4,4"/>
<g id="clust1" class="cluster">
<title>cluster_src</title>
<path fill="#ffffff" stroke="black" stroke-width="2" d="M169,-17.12C169,-17.12 616,-17.12 616,-17.12 622,-17.12 628,-23.12 628,-29.12 628,-29.12 628,-281.12 628,-281.12 628,-287.12 622,-293.12 616,-293.12 616,-293.12 169,-293.12 169,-293.12 163,-293.12 157,-287.12 157,-281.12 157,-281.12 157,-29.12 157,-29.12 157,-23.12 163,-17.12 169,-17.12"/>
<text text-anchor="middle" x="392.5" y="-281.92" font-family="Helvetica,sans-Serif" font-weight="bold" font-size="9.00">src</text>
</g>
<g id="clust2" class="cluster">
<title>cluster_src/currency</title>
<path fill="#ffffff" stroke="black" stroke-width="2" d="M271,-155.12C271,-155.12 401,-155.12 401,-155.12 407,-155.12 413,-161.12 413,-167.12 413,-167.12 413,-255.12 413,-255.12 413,-261.12 407,-267.12 401,-267.12 401,-267.12 271,-267.12 271,-267.12 265,-267.12 259,-261.12 259,-255.12 259,-255.12 259,-167.12 259,-167.12 259,-161.12 265,-155.12 271,-155.12"/>
<text text-anchor="middle" x="336" y="-255.92" font-family="Helvetica,sans-Serif" font-weight="bold" font-size="9.00">currency</text>
</g>
<g id="clust3" class="cluster">
<title>cluster_src/currency/mixins</title>
<path fill="#ffffff" stroke="black" stroke-width="2" d="M343,-189.12C343,-189.12 393,-189.12 393,-189.12 399,-189.12 405,-195.12 405,-201.12 405,-201.12 405,-229.12 405,-229.12 405,-235.12 399,-241.12 393,-241.12 393,-241.12 343,-241.12 343,-241.12 337,-241.12 331,-235.12 331,-229.12 331,-229.12 331,-201.12 331,-201.12 331,-195.12 337,-189.12 343,-189.12"/>
<text text-anchor="middle" x="368" y="-229.92" font-family="Helvetica,sans-Serif" font-weight="bold" font-size="9.00">mixins</text>
</g>
<g id="clust4" class="cluster">
<title>cluster_src/game</title>
<path fill="#ffffff" stroke="black" stroke-width="2" d="M185,-215.12C185,-215.12 231,-215.12 231,-215.12 237,-215.12 243,-221.12 243,-227.12 243,-227.12 243,-255.12 243,-255.12 243,-261.12 237,-267.12 231,-267.12 231,-267.12 185,-267.12 185,-267.12 179,-267.12 173,-261.12 173,-255.12 173,-255.12 173,-227.12 173,-227.12 173,-221.12 179,-215.12 185,-215.12"/>
<text text-anchor="middle" x="208" y="-255.92" font-family="Helvetica,sans-Serif" font-weight="bold" font-size="9.00">game</text>
</g>
<g id="clust5" class="cluster">
<title>cluster_src/number</title>
<path fill="#ffffff" stroke="black" stroke-width="2" d="M177,-155.12C177,-155.12 239,-155.12 239,-155.12 245,-155.12 251,-161.12 251,-167.12 251,-167.12 251,-195.12 251,-195.12 251,-201.12 245,-207.12 239,-207.12 239,-207.12 177,-207.12 177,-207.12 171,-207.12 165,-201.12 165,-195.12 165,-195.12 165,-167.12 165,-167.12 165,-161.12 171,-155.12 177,-155.12"/>
<text text-anchor="middle" x="208" y="-195.92" font-family="Helvetica,sans-Serif" font-weight="bold" font-size="9.00">number</text>
</g>
<g id="clust6" class="cluster">
<title>cluster_src/producer</title>
<path fill="#ffffff" stroke="black" stroke-width="2" d="M345,-25.12C345,-25.12 514,-25.12 514,-25.12 520,-25.12 526,-31.12 526,-37.12 526,-37.12 526,-125.12 526,-125.12 526,-131.12 520,-137.12 514,-137.12 514,-137.12 345,-137.12 345,-137.12 339,-137.12 333,-131.12 333,-125.12 333,-125.12 333,-37.12 333,-37.12 333,-31.12 339,-25.12 345,-25.12"/>
<text text-anchor="middle" x="429.5" y="-125.92" font-family="Helvetica,sans-Serif" font-weight="bold" font-size="9.00">producer</text>
</g>
<g id="clust7" class="cluster">
<title>cluster_src/producer/mixins</title>
<path fill="#ffffff" stroke="black" stroke-width="2" d="M433,-33.12C433,-33.12 506,-33.12 506,-33.12 512,-33.12 518,-39.12 518,-45.12 518,-45.12 518,-73.12 518,-73.12 518,-79.12 512,-85.12 506,-85.12 506,-85.12 433,-85.12 433,-85.12 427,-85.12 421,-79.12 421,-73.12 421,-73.12 421,-45.12 421,-45.12 421,-39.12 427,-33.12 433,-33.12"/>
<text text-anchor="middle" x="469.5" y="-73.92" font-family="Helvetica,sans-Serif" font-weight="bold" font-size="9.00">mixins</text>
</g>
<g id="clust8" class="cluster">
<title>cluster_src/serialize</title>
<path fill="#ffffff" stroke="black" stroke-width="2" d="M446.5,-145.12C446.5,-145.12 608,-145.12 608,-145.12 614,-145.12 620,-151.12 620,-157.12 620,-157.12 620,-215.12 620,-215.12 620,-221.12 614,-227.12 608,-227.12 608,-227.12 446.5,-227.12 446.5,-227.12 440.5,-227.12 434.5,-221.12 434.5,-215.12 434.5,-215.12 434.5,-157.12 434.5,-157.12 434.5,-151.12 440.5,-145.12 446.5,-145.12"/>
<text text-anchor="middle" x="527.25" y="-215.92" font-family="Helvetica,sans-Serif" font-weight="bold" font-size="9.00">serialize</text>
</g>
<g id="clust9" class="cluster">
<title>cluster_src/util</title>
<path fill="#ffffff" stroke="black" stroke-width="2" d="M546,-33.12C546,-33.12 600,-33.12 600,-33.12 606,-33.12 612,-39.12 612,-45.12 612,-45.12 612,-103.12 612,-103.12 612,-109.12 606,-115.12 600,-115.12 600,-115.12 546,-115.12 546,-115.12 540,-115.12 534,-109.12 534,-103.12 534,-103.12 534,-45.12 534,-45.12 534,-39.12 540,-33.12 546,-33.12"/>
<text text-anchor="middle" x="573" y="-103.92" font-family="Helvetica,sans-Serif" font-weight="bold" font-size="9.00">util</text>
</g>
<g id="clust10" class="cluster">
<title>cluster_test</title>
<path fill="#ffffff" stroke="black" stroke-width="2" d="M20,-301.12C20,-301.12 231,-301.12 231,-301.12 237,-301.12 243,-307.12 243,-313.12 243,-313.12 243,-641.12 243,-641.12 243,-647.12 237,-653.12 231,-653.12 231,-653.12 20,-653.12 20,-653.12 14,-653.12 8,-647.12 8,-641.12 8,-641.12 8,-313.12 8,-313.12 8,-307.12 14,-301.12 20,-301.12"/>
<text text-anchor="middle" x="125.5" y="-641.92" font-family="Helvetica,sans-Serif" font-weight="bold" font-size="9.00">test</text>
</g>
<g id="clust11" class="cluster">
<title>cluster_test/currency</title>
<path fill="#ffffff" stroke="black" stroke-width="2" d="M39,-489.12C39,-489.12 126,-489.12 126,-489.12 132,-489.12 138,-495.12 138,-501.12 138,-501.12 138,-589.12 138,-589.12 138,-595.12 132,-601.12 126,-601.12 126,-601.12 39,-601.12 39,-601.12 33,-601.12 27,-595.12 27,-589.12 27,-589.12 27,-501.12 27,-501.12 27,-495.12 33,-489.12 39,-489.12"/>
<text text-anchor="middle" x="82.5" y="-589.92" font-family="Helvetica,sans-Serif" font-weight="bold" font-size="9.00">currency</text>
</g>
<g id="clust12" class="cluster">
<title>cluster_test/currency/mixins</title>
<path fill="#ffffff" stroke="black" stroke-width="2" d="M47.5,-523.12C47.5,-523.12 117.5,-523.12 117.5,-523.12 123.5,-523.12 129.5,-529.12 129.5,-535.12 129.5,-535.12 129.5,-563.12 129.5,-563.12 129.5,-569.12 123.5,-575.12 117.5,-575.12 117.5,-575.12 47.5,-575.12 47.5,-575.12 41.5,-575.12 35.5,-569.12 35.5,-563.12 35.5,-563.12 35.5,-535.12 35.5,-535.12 35.5,-529.12 41.5,-523.12 47.5,-523.12"/>
<text text-anchor="middle" x="82.5" y="-563.92" font-family="Helvetica,sans-Serif" font-weight="bold" font-size="9.00">mixins</text>
</g>
<g id="clust13" class="cluster">
<title>cluster_test/producer</title>
<path fill="#ffffff" stroke="black" stroke-width="2" d="M28,-309.12C28,-309.12 137,-309.12 137,-309.12 143,-309.12 149,-315.12 149,-321.12 149,-321.12 149,-409.12 149,-409.12 149,-415.12 143,-421.12 137,-421.12 137,-421.12 28,-421.12 28,-421.12 22,-421.12 16,-415.12 16,-409.12 16,-409.12 16,-321.12 16,-321.12 16,-315.12 22,-309.12 28,-309.12"/>
<text text-anchor="middle" x="82.5" y="-409.92" font-family="Helvetica,sans-Serif" font-weight="bold" font-size="9.00">producer</text>
</g>
<g id="clust14" class="cluster">
<title>cluster_test/producer/mixins</title>
<path fill="#ffffff" stroke="black" stroke-width="2" d="M36,-317.12C36,-317.12 129,-317.12 129,-317.12 135,-317.12 141,-323.12 141,-329.12 141,-329.12 141,-357.12 141,-357.12 141,-363.12 135,-369.12 129,-369.12 129,-369.12 36,-369.12 36,-369.12 30,-369.12 24,-363.12 24,-357.12 24,-357.12 24,-329.12 24,-329.12 24,-323.12 30,-317.12 36,-317.12"/>
<text text-anchor="middle" x="82.5" y="-357.92" font-family="Helvetica,sans-Serif" font-weight="bold" font-size="9.00">mixins</text>
</g>
<g id="clust15" class="cluster">
<title>cluster_test/schema</title>
<path fill="#ffffff" stroke="black" stroke-width="2" d="M52,-429.12C52,-429.12 113,-429.12 113,-429.12 119,-429.12 125,-435.12 125,-441.12 125,-441.12 125,-469.12 125,-469.12 125,-475.12 119,-481.12 113,-481.12 113,-481.12 52,-481.12 52,-481.12 46,-481.12 40,-475.12 40,-469.12 40,-469.12 40,-441.12 40,-441.12 40,-435.12 46,-429.12 52,-429.12"/>
<text text-anchor="middle" x="82.5" y="-469.92" font-family="Helvetica,sans-Serif" font-weight="bold" font-size="9.00">schema</text>
</g>
<!-- src/currency/Currency.ts -->
<g id="node1" class="node">
<title>src/currency/Currency.ts</title>
<g id="a_node1"><a xlink:href="src/currency/Currency.ts" xlink:title="Currency.ts">
<path fill="#ddfeff" stroke="black" d="M396,-181.12C396,-181.12 340,-181.12 340,-181.12 337,-181.12 334,-178.12 334,-175.12 334,-175.12 334,-169.12 334,-169.12 334,-166.12 337,-163.12 340,-163.12 340,-163.12 396,-163.12 396,-163.12 399,-163.12 402,-166.12 402,-169.12 402,-169.12 402,-175.12 402,-175.12 402,-178.12 399,-181.12 396,-181.12"/>
<text text-anchor="start" x="342" y="-169.92" font-family="Helvetica,sans-Serif" font-size="9.00">Currency.ts</text>
</a>
</g>
</g>
<!-- src/producer/Producer.ts -->
<g id="node2" class="node">
<title>src/producer/Producer.ts</title>
<g id="a_node2"><a xlink:href="src/producer/Producer.ts" xlink:title="Producer.ts">
<path fill="#ddfeff" stroke="black" d="M497.5,-111.12C497.5,-111.12 441.5,-111.12 441.5,-111.12 438.5,-111.12 435.5,-108.12 435.5,-105.12 435.5,-105.12 435.5,-99.12 435.5,-99.12 435.5,-96.12 438.5,-93.12 441.5,-93.12 441.5,-93.12 497.5,-93.12 497.5,-93.12 500.5,-93.12 503.5,-96.12 503.5,-99.12 503.5,-99.12 503.5,-105.12 503.5,-105.12 503.5,-108.12 500.5,-111.12 497.5,-111.12"/>
<text text-anchor="start" x="443.5" y="-99.92" font-family="Helvetica,sans-Serif" font-size="9.00">Producer.ts</text>
</a>
</g>
</g>
<!-- src/currency/Currency.ts&#45;&gt;src/producer/Producer.ts -->
<g id="edge1" class="edge">
<title>src/currency/Currency.ts&#45;&gt;src/producer/Producer.ts</title>
<path fill="none" stroke="#000000" stroke-width="2" stroke-opacity="0.200000" d="M382.01,-162.97C399.51,-150.65 430.73,-128.69 450.49,-114.79"/>
<polygon fill="#000000" fill-opacity="0.200000" stroke="#000000" stroke-width="2" stroke-opacity="0.200000" points="451.79,-116.44 455.49,-111.27 449.37,-113.01 451.79,-116.44"/>
</g>
<!-- src/serialize/index.ts -->
<g id="node3" class="node">
<title>src/serialize/index.ts</title>
<g id="a_node3"><a xlink:href="src/serialize/index.ts" xlink:title="index.ts">
<path fill="#ddfeff" stroke="black" d="M490.5,-171.12C490.5,-171.12 448.5,-171.12 448.5,-171.12 445.5,-171.12 442.5,-168.12 442.5,-165.12 442.5,-165.12 442.5,-159.12 442.5,-159.12 442.5,-156.12 445.5,-153.12 448.5,-153.12 448.5,-153.12 490.5,-153.12 490.5,-153.12 493.5,-153.12 496.5,-156.12 496.5,-159.12 496.5,-159.12 496.5,-165.12 496.5,-165.12 496.5,-168.12 493.5,-171.12 490.5,-171.12"/>
<text text-anchor="start" x="451" y="-159.92" font-family="Helvetica,sans-Serif" font-size="9.00">index.ts</text>
</a>
</g>
</g>
<!-- src/currency/Currency.ts&#45;&gt;src/serialize/index.ts -->
<g id="edge2" class="edge">
<title>src/currency/Currency.ts&#45;&gt;src/serialize/index.ts</title>
<path fill="none" stroke="#000000" stroke-width="2" stroke-opacity="0.200000" d="M402.13,-168.79C413.1,-167.69 425.28,-166.46 436.18,-165.37"/>
<polygon fill="#000000" fill-opacity="0.200000" stroke="#000000" stroke-width="2" stroke-opacity="0.200000" points="436.67,-167.43 442.43,-164.74 436.25,-163.25 436.67,-167.43"/>
</g>
<!-- src/serialize/Serializable.ts -->
<g id="node4" class="node">
<title>src/serialize/Serializable.ts</title>
<g id="a_node4"><a xlink:href="src/serialize/Serializable.ts" xlink:title="Serializable.ts">
<path fill="#ddfeff" stroke="black" d="M606,-171.12C606,-171.12 540,-171.12 540,-171.12 537,-171.12 534,-168.12 534,-165.12 534,-165.12 534,-159.12 534,-159.12 534,-156.12 537,-153.12 540,-153.12 540,-153.12 606,-153.12 606,-153.12 609,-153.12 612,-156.12 612,-159.12 612,-159.12 612,-165.12 612,-165.12 612,-168.12 609,-171.12 606,-171.12"/>
<text text-anchor="start" x="542" y="-159.92" font-family="Helvetica,sans-Serif" font-size="9.00">Serializable.ts</text>
</a>
</g>
</g>
<!-- src/currency/Currency.ts&#45;&gt;src/serialize/Serializable.ts -->
<g id="edge3" class="edge">
<title>src/currency/Currency.ts&#45;&gt;src/serialize/Serializable.ts</title>
<path fill="none" stroke="#000000" stroke-width="2" stroke-opacity="0.200000" d="M402,-176.76C433.93,-180.41 483.58,-183.86 526,-177.12 531.6,-176.23 537.46,-174.76 543.03,-173.09"/>
<polygon fill="#000000" fill-opacity="0.200000" stroke="#000000" stroke-width="2" stroke-opacity="0.200000" points="543.87,-175.03 548.95,-171.21 542.6,-171.02 543.87,-175.03"/>
</g>
<!-- src/currency/mixins/Linked.ts -->
<g id="node5" class="node">
<title>src/currency/mixins/Linked.ts</title>
<g id="a_node5"><a xlink:href="src/currency/mixins/Linked.ts" xlink:title="Linked.ts">
<path fill="#ddfeff" stroke="black" d="M391,-215.12C391,-215.12 345,-215.12 345,-215.12 342,-215.12 339,-212.12 339,-209.12 339,-209.12 339,-203.12 339,-203.12 339,-200.12 342,-197.12 345,-197.12 345,-197.12 391,-197.12 391,-197.12 394,-197.12 397,-200.12 397,-203.12 397,-203.12 397,-209.12 397,-209.12 397,-212.12 394,-215.12 391,-215.12"/>
<text text-anchor="start" x="347" y="-203.92" font-family="Helvetica,sans-Serif" font-size="9.00">Linked.ts</text>
</a>
</g>
</g>
<!-- src/currency/Currency.ts&#45;&gt;src/currency/mixins/Linked.ts -->
<g id="edge4" class="edge">
<title>src/currency/Currency.ts&#45;&gt;src/currency/mixins/Linked.ts</title>
<path fill="none" stroke="#000000" stroke-width="2" stroke-opacity="0.200000" d="M368,-181.15C368,-181.64 368,-182.12 368,-182.61"/>
<polygon fill="#000000" fill-opacity="0.200000" stroke="#000000" stroke-width="2" stroke-opacity="0.200000" points="365.9,-190.76 368,-196.76 370.1,-190.76 365.9,-190.76"/>
<polyline fill="none" stroke="#000000" stroke-width="2" stroke-opacity="0.200000" points="368,-190.76 368,-187.76 "/>
<ellipse fill="none" stroke="#000000" stroke-width="2" stroke-opacity="0.200000" cx="368" cy="-185.36" rx="2.4" ry="2.4"/>
</g>
<!-- src/producer/Producer.ts&#45;&gt;src/serialize/Serializable.ts -->
<g id="edge13" class="edge">
<title>src/producer/Producer.ts&#45;&gt;src/serialize/Serializable.ts</title>
<path fill="none" stroke="#000000" stroke-width="2" stroke-opacity="0.200000" d="M485.92,-111.23C503.46,-121.6 532.17,-138.57 551.57,-150.04"/>
<polygon fill="#000000" fill-opacity="0.200000" stroke="#000000" stroke-width="2" stroke-opacity="0.200000" points="550.54,-151.87 556.77,-153.12 552.68,-148.26 550.54,-151.87"/>
</g>
<!-- src/util/unwrap.ts -->
<g id="node11" class="node">
<title>src/util/unwrap.ts</title>
<g id="a_node11"><a xlink:href="src/util/unwrap.ts" xlink:title="unwrap.ts">
<path fill="#ddfeff" stroke="black" d="M598,-89.12C598,-89.12 548,-89.12 548,-89.12 545,-89.12 542,-86.12 542,-83.12 542,-83.12 542,-77.12 542,-77.12 542,-74.12 545,-71.12 548,-71.12 548,-71.12 598,-71.12 598,-71.12 601,-71.12 604,-74.12 604,-77.12 604,-77.12 604,-83.12 604,-83.12 604,-86.12 601,-89.12 598,-89.12"/>
<text text-anchor="start" x="550" y="-77.92" font-family="Helvetica,sans-Serif" font-size="9.00">unwrap.ts</text>
</a>
</g>
</g>
<!-- src/producer/Producer.ts&#45;&gt;src/util/unwrap.ts -->
<g id="edge14" class="edge">
<title>src/producer/Producer.ts&#45;&gt;src/util/unwrap.ts</title>
<path fill="none" stroke="#000000" stroke-width="2" stroke-opacity="0.200000" d="M503.73,-94.91C513.98,-92.69 525.31,-90.24 535.75,-87.98"/>
<polygon fill="#000000" fill-opacity="0.200000" stroke="#000000" stroke-width="2" stroke-opacity="0.200000" points="536.36,-89.99 541.78,-86.67 535.47,-85.89 536.36,-89.99"/>
</g>
<!-- src/producer/mixins/Diminishing.ts -->
<g id="node12" class="node">
<title>src/producer/mixins/Diminishing.ts</title>
<g id="a_node12"><a xlink:href="src/producer/mixins/Diminishing.ts" xlink:title="Diminishing.ts">
<path fill="#ddfeff" stroke="black" d="M504,-59.12C504,-59.12 435,-59.12 435,-59.12 432,-59.12 429,-56.12 429,-53.12 429,-53.12 429,-47.12 429,-47.12 429,-44.12 432,-41.12 435,-41.12 435,-41.12 504,-41.12 504,-41.12 507,-41.12 510,-44.12 510,-47.12 510,-47.12 510,-53.12 510,-53.12 510,-56.12 507,-59.12 504,-59.12"/>
<text text-anchor="start" x="437" y="-47.92" font-family="Helvetica,sans-Serif" font-size="9.00">Diminishing.ts</text>
</a>
</g>
</g>
<!-- src/producer/Producer.ts&#45;&gt;src/producer/mixins/Diminishing.ts -->
<g id="edge15" class="edge">
<title>src/producer/Producer.ts&#45;&gt;src/producer/mixins/Diminishing.ts</title>
<path fill="none" stroke="#000000" stroke-width="2" stroke-opacity="0.200000" d="M469.5,-92.79C469.5,-86.37 469.5,-79.94 469.5,-73.52"/>
<polygon fill="#000000" fill-opacity="0.200000" stroke="#000000" stroke-width="2" stroke-opacity="0.200000" points="471.6,-65.46 469.5,-59.46 467.4,-65.46 471.6,-65.46"/>
<polyline fill="none" stroke="#000000" stroke-width="2" stroke-opacity="0.200000" points="469.5,-65.46 469.5,-68.46 "/>
<ellipse fill="none" stroke="#000000" stroke-width="2" stroke-opacity="0.200000" cx="469.5" cy="-70.86" rx="2.4" ry="2.4"/>
</g>
<!-- src/serialize/index.ts&#45;&gt;src/serialize/Serializable.ts -->
<g id="edge21" class="edge">
<title>src/serialize/index.ts&#45;&gt;src/serialize/Serializable.ts</title>
<path fill="none" stroke="#000000" stroke-width="2" stroke-opacity="0.200000" d="M496.64,-162.12C506.07,-162.12 516.99,-162.12 527.54,-162.12"/>
<polygon fill="#000000" fill-opacity="0.200000" stroke="#000000" stroke-width="2" stroke-opacity="0.200000" points="527.7,-164.22 533.7,-162.12 527.7,-160.02 527.7,-164.22"/>
</g>
<!-- src/serialize/schema.ts -->
<g id="node14" class="node">
<title>src/serialize/schema.ts</title>
<g id="a_node14"><a xlink:href="src/serialize/schema.ts" xlink:title="schema.ts">
<path fill="#ddfeff" stroke="black" d="M598.5,-201.12C598.5,-201.12 547.5,-201.12 547.5,-201.12 544.5,-201.12 541.5,-198.12 541.5,-195.12 541.5,-195.12 541.5,-189.12 541.5,-189.12 541.5,-186.12 544.5,-183.12 547.5,-183.12 547.5,-183.12 598.5,-183.12 598.5,-183.12 601.5,-183.12 604.5,-186.12 604.5,-189.12 604.5,-189.12 604.5,-195.12 604.5,-195.12 604.5,-198.12 601.5,-201.12 598.5,-201.12"/>
<text text-anchor="start" x="549.5" y="-189.92" font-family="Helvetica,sans-Serif" font-size="9.00">schema.ts</text>
</a>
</g>
</g>
<!-- src/serialize/index.ts&#45;&gt;src/serialize/schema.ts -->
<g id="edge20" class="edge">
<title>src/serialize/index.ts&#45;&gt;src/serialize/schema.ts</title>
<path fill="none" stroke="#000000" stroke-width="2" stroke-opacity="0.200000" d="M496.64,-169.84C508.46,-173.34 522.62,-177.52 535.47,-181.32"/>
<polygon fill="#000000" fill-opacity="0.200000" stroke="#000000" stroke-width="2" stroke-opacity="0.200000" points="534.91,-183.35 541.26,-183.03 536.1,-179.32 534.91,-183.35"/>
</g>
<!-- src/currency/mixins/Linked.ts&#45;&gt;src/currency/Currency.ts -->
<g id="edge7" class="edge">
<title>src/currency/mixins/Linked.ts&#45;&gt;src/currency/Currency.ts</title>
<path fill="none" stroke="#000000" stroke-width="2" stroke-opacity="0.200000" d="M368,-196.76C368,-196.27 368,-195.78 368,-195.29"/>
<polygon fill="#000000" fill-opacity="0.200000" stroke="#000000" stroke-width="2" stroke-opacity="0.200000" points="370.1,-187.15 368,-181.15 365.9,-187.15 370.1,-187.15"/>
<polyline fill="none" stroke="#000000" stroke-width="2" stroke-opacity="0.200000" points="368,-187.15 368,-190.15 "/>
<ellipse fill="none" stroke="#000000" stroke-width="2" stroke-opacity="0.200000" cx="368" cy="-192.55" rx="2.4" ry="2.4"/>
</g>
<!-- src/currency/index.ts -->
<g id="node6" class="node">
<title>src/currency/index.ts</title>
<g id="a_node6"><a xlink:href="src/currency/index.ts" xlink:title="index.ts">
<path fill="#ddfeff" stroke="black" d="M315,-198.12C315,-198.12 273,-198.12 273,-198.12 270,-198.12 267,-195.12 267,-192.12 267,-192.12 267,-186.12 267,-186.12 267,-183.12 270,-180.12 273,-180.12 273,-180.12 315,-180.12 315,-180.12 318,-180.12 321,-183.12 321,-186.12 321,-186.12 321,-192.12 321,-192.12 321,-195.12 318,-198.12 315,-198.12"/>
<text text-anchor="start" x="275.5" y="-186.92" font-family="Helvetica,sans-Serif" font-size="9.00">index.ts</text>
</a>
</g>
</g>
<!-- src/currency/index.ts&#45;&gt;src/currency/Currency.ts -->
<g id="edge5" class="edge">
<title>src/currency/index.ts&#45;&gt;src/currency/Currency.ts</title>
<path fill="none" stroke="#000000" stroke-width="2" stroke-opacity="0.200000" d="M321.4,-182.88C323.41,-182.41 325.46,-181.93 327.52,-181.44"/>
<polygon fill="#000000" fill-opacity="0.200000" stroke="#000000" stroke-width="2" stroke-opacity="0.200000" points="328.38,-183.39 333.74,-179.97 327.41,-179.31 328.38,-183.39"/>
</g>
<!-- src/currency/index.ts&#45;&gt;src/currency/mixins/Linked.ts -->
<g id="edge6" class="edge">
<title>src/currency/index.ts&#45;&gt;src/currency/mixins/Linked.ts</title>
<path fill="none" stroke="#000000" stroke-width="2" stroke-opacity="0.200000" d="M321.4,-195.35C325.09,-196.22 328.92,-197.13 332.73,-198.03"/>
<polygon fill="#000000" fill-opacity="0.200000" stroke="#000000" stroke-width="2" stroke-opacity="0.200000" points="332.34,-200.09 338.66,-199.43 333.31,-196.01 332.34,-200.09"/>
</g>
<!-- src/game/Game.ts -->
<g id="node7" class="node">
<title>src/game/Game.ts</title>
<g id="a_node7"><a xlink:href="src/game/Game.ts" xlink:title="Game.ts">
<path fill="#ddfeff" stroke="black" d="M229,-241.12C229,-241.12 187,-241.12 187,-241.12 184,-241.12 181,-238.12 181,-235.12 181,-235.12 181,-229.12 181,-229.12 181,-226.12 184,-223.12 187,-223.12 187,-223.12 229,-223.12 229,-223.12 232,-223.12 235,-226.12 235,-229.12 235,-229.12 235,-235.12 235,-235.12 235,-238.12 232,-241.12 229,-241.12"/>
<text text-anchor="start" x="189" y="-229.92" font-family="Helvetica,sans-Serif" font-size="9.00">Game.ts</text>
</a>
</g>
</g>
<!-- src/game/Game.ts&#45;&gt;src/currency/index.ts -->
<g id="edge8" class="edge">
<title>src/game/Game.ts&#45;&gt;src/currency/index.ts</title>
<path fill="none" stroke="#000000" stroke-width="2" stroke-opacity="0.200000" d="M226.81,-223C239.29,-216.61 256.08,-208.02 269.63,-201.08"/>
<polygon fill="#000000" fill-opacity="0.200000" stroke="#000000" stroke-width="2" stroke-opacity="0.200000" points="270.83,-202.83 275.21,-198.22 268.91,-199.09 270.83,-202.83"/>
</g>
<!-- src/producer/index.ts -->
<g id="node8" class="node">
<title>src/producer/index.ts</title>
<g id="a_node8"><a xlink:href="src/producer/index.ts" xlink:title="index.ts">
<path fill="#ddfeff" stroke="black" d="M389,-111.12C389,-111.12 347,-111.12 347,-111.12 344,-111.12 341,-108.12 341,-105.12 341,-105.12 341,-99.12 341,-99.12 341,-96.12 344,-93.12 347,-93.12 347,-93.12 389,-93.12 389,-93.12 392,-93.12 395,-96.12 395,-99.12 395,-99.12 395,-105.12 395,-105.12 395,-108.12 392,-111.12 389,-111.12"/>
<text text-anchor="start" x="349.5" y="-99.92" font-family="Helvetica,sans-Serif" font-size="9.00">index.ts</text>
</a>
</g>
</g>
<!-- src/game/Game.ts&#45;&gt;src/producer/index.ts -->
<g id="edge9" class="edge">
<title>src/game/Game.ts&#45;&gt;src/producer/index.ts</title>
<path fill="none" stroke="#000000" stroke-width="2" stroke-opacity="0.200000" d="M235.02,-223.33C241.14,-220.09 247.02,-215.78 251,-210.12 265.96,-188.83 240.96,-170.87 259,-152.12 278.4,-131.95 295.67,-153.02 321,-141.12 333.79,-135.11 345.88,-124.59 354.46,-115.99"/>
<polygon fill="#000000" fill-opacity="0.200000" stroke="#000000" stroke-width="2" stroke-opacity="0.200000" points="356.18,-117.23 358.84,-111.45 353.16,-114.31 356.18,-117.23"/>
</g>
<!-- src/producer/index.ts&#45;&gt;src/producer/Producer.ts -->
<g id="edge17" class="edge">
<title>src/producer/index.ts&#45;&gt;src/producer/Producer.ts</title>
<path fill="none" stroke="#000000" stroke-width="2" stroke-opacity="0.200000" d="M395.14,-102.12C405.54,-102.12 417.73,-102.12 429.15,-102.12"/>
<polygon fill="#000000" fill-opacity="0.200000" stroke="#000000" stroke-width="2" stroke-opacity="0.200000" points="429.4,-104.22 435.4,-102.12 429.4,-100.02 429.4,-104.22"/>
</g>
<!-- src/producer/index.ts&#45;&gt;src/producer/mixins/Diminishing.ts -->
<g id="edge16" class="edge">
<title>src/producer/index.ts&#45;&gt;src/producer/mixins/Diminishing.ts</title>
<path fill="none" stroke="#000000" stroke-width="2" stroke-opacity="0.200000" d="M378.99,-92.8C388.93,-83.98 404.99,-70.96 421,-63.12 422.09,-62.58 423.21,-62.07 424.35,-61.57"/>
<polygon fill="#000000" fill-opacity="0.200000" stroke="#000000" stroke-width="2" stroke-opacity="0.200000" points="425.39,-63.42 430.18,-59.24 423.83,-59.52 425.39,-63.42"/>
</g>
<!-- src/index.ts -->
<g id="node9" class="node">
<title>src/index.ts</title>
<g id="a_node9"><a xlink:href="src/index.ts" xlink:title="index.ts">
<path fill="#ddfeff" stroke="black" d="M229,-147.12C229,-147.12 187,-147.12 187,-147.12 184,-147.12 181,-144.12 181,-141.12 181,-141.12 181,-135.12 181,-135.12 181,-132.12 184,-129.12 187,-129.12 187,-129.12 229,-129.12 229,-129.12 232,-129.12 235,-132.12 235,-135.12 235,-135.12 235,-141.12 235,-141.12 235,-144.12 232,-147.12 229,-147.12"/>
<text text-anchor="start" x="189.5" y="-135.92" font-family="Helvetica,sans-Serif" font-size="9.00">index.ts</text>
</a>
</g>
</g>
<!-- src/index.ts&#45;&gt;src/serialize/index.ts -->
<g id="edge12" class="edge">
<title>src/index.ts&#45;&gt;src/serialize/index.ts</title>
<path fill="none" stroke="#000000" stroke-width="2" stroke-opacity="0.200000" d="M235.17,-139C274.08,-140.51 349.41,-144.23 413,-152.12 420.51,-153.05 428.55,-154.33 436.12,-155.67"/>
<polygon fill="#000000" fill-opacity="0.200000" stroke="#000000" stroke-width="2" stroke-opacity="0.200000" points="436.06,-157.79 442.33,-156.79 436.81,-153.66 436.06,-157.79"/>
</g>
<!-- src/index.ts&#45;&gt;src/currency/index.ts -->
<g id="edge10" class="edge">
<title>src/index.ts&#45;&gt;src/currency/index.ts</title>
<path fill="none" stroke="#000000" stroke-width="2" stroke-opacity="0.200000" d="M235.09,-142.71C240.92,-144.77 246.65,-147.77 251,-152.12 258.95,-160.07 251.22,-168 259,-176.12 259.85,-177.01 260.77,-177.84 261.74,-178.61"/>
<polygon fill="#000000" fill-opacity="0.200000" stroke="#000000" stroke-width="2" stroke-opacity="0.200000" points="260.8,-180.5 266.97,-182.03 263.1,-176.99 260.8,-180.5"/>
</g>
<!-- src/index.ts&#45;&gt;src/producer/index.ts -->
<g id="edge11" class="edge">
<title>src/index.ts&#45;&gt;src/producer/index.ts</title>
<path fill="none" stroke="#000000" stroke-width="2" stroke-opacity="0.200000" d="M235.09,-132.17C262.42,-125.95 305.39,-116.16 334.81,-109.45"/>
<polygon fill="#000000" fill-opacity="0.200000" stroke="#000000" stroke-width="2" stroke-opacity="0.200000" points="335.49,-111.45 340.87,-108.07 334.55,-107.36 335.49,-111.45"/>
</g>
<!-- src/number/Standard.ts -->
<g id="node10" class="node">
<title>src/number/Standard.ts</title>
<g id="a_node10"><a xlink:href="src/number/Standard.ts" xlink:title="no&#45;orphans">
<path fill="#ccffcc" stroke="orange" d="M237,-181.12C237,-181.12 179,-181.12 179,-181.12 176,-181.12 173,-178.12 173,-175.12 173,-175.12 173,-169.12 173,-169.12 173,-166.12 176,-163.12 179,-163.12 179,-163.12 237,-163.12 237,-163.12 240,-163.12 243,-166.12 243,-169.12 243,-169.12 243,-175.12 243,-175.12 243,-178.12 240,-181.12 237,-181.12"/>
<text text-anchor="start" x="181" y="-169.92" font-family="Helvetica,sans-Serif" font-size="9.00" fill="orange">Standard.ts</text>
</a>
</g>
</g>
<!-- src/producer/mixins/Diminishing.ts&#45;&gt;src/producer/Producer.ts -->
<g id="edge19" class="edge">
<title>src/producer/mixins/Diminishing.ts&#45;&gt;src/producer/Producer.ts</title>
<path fill="none" stroke="#000000" stroke-width="2" stroke-opacity="0.200000" d="M469.5,-59.46C469.5,-65.88 469.5,-72.31 469.5,-78.73"/>
<polygon fill="#000000" fill-opacity="0.200000" stroke="#000000" stroke-width="2" stroke-opacity="0.200000" points="467.4,-86.79 469.5,-92.79 471.6,-86.79 467.4,-86.79"/>
<polyline fill="none" stroke="#000000" stroke-width="2" stroke-opacity="0.200000" points="469.5,-86.79 469.5,-83.79 "/>
<ellipse fill="none" stroke="#000000" stroke-width="2" stroke-opacity="0.200000" cx="469.5" cy="-81.39" rx="2.4" ry="2.4"/>
</g>
<!-- src/util/easings.ts -->
<g id="node13" class="node">
<title>src/util/easings.ts</title>
<g id="a_node13"><a xlink:href="src/util/easings.ts" xlink:title="easings.ts">
<path fill="#ddfeff" stroke="black" d="M598,-59.12C598,-59.12 548,-59.12 548,-59.12 545,-59.12 542,-56.12 542,-53.12 542,-53.12 542,-47.12 542,-47.12 542,-44.12 545,-41.12 548,-41.12 548,-41.12 598,-41.12 598,-41.12 601,-41.12 604,-44.12 604,-47.12 604,-47.12 604,-53.12 604,-53.12 604,-56.12 601,-59.12 598,-59.12"/>
<text text-anchor="start" x="550" y="-47.92" font-family="Helvetica,sans-Serif" font-size="9.00">easings.ts</text>
</a>
</g>
</g>
<!-- src/producer/mixins/Diminishing.ts&#45;&gt;src/util/easings.ts -->
<g id="edge18" class="edge">
<title>src/producer/mixins/Diminishing.ts&#45;&gt;src/util/easings.ts</title>
<path fill="none" stroke="#000000" stroke-width="2" stroke-opacity="0.200000" d="M510.03,-50.12C518.46,-50.12 527.32,-50.12 535.63,-50.12"/>
<polygon fill="#000000" fill-opacity="0.200000" stroke="#000000" stroke-width="2" stroke-opacity="0.200000" points="535.85,-52.22 541.85,-50.12 535.85,-48.02 535.85,-52.22"/>
</g>
<!-- test/currency/currencies.test.ts -->
<g id="node15" class="node">
<title>test/currency/currencies.test.ts</title>
<g id="a_node15"><a xlink:href="test/currency/currencies.test.ts" xlink:title="currencies.test.ts">
<path fill="#ddfeff" stroke="black" d="M124,-515.12C124,-515.12 41,-515.12 41,-515.12 38,-515.12 35,-512.12 35,-509.12 35,-509.12 35,-503.12 35,-503.12 35,-500.12 38,-497.12 41,-497.12 41,-497.12 124,-497.12 124,-497.12 127,-497.12 130,-500.12 130,-503.12 130,-503.12 130,-509.12 130,-509.12 130,-512.12 127,-515.12 124,-515.12"/>
<text text-anchor="start" x="43" y="-503.92" font-family="Helvetica,sans-Serif" font-size="9.00">currencies.test.ts</text>
</a>
</g>
</g>
<!-- test/currency/currencies.test.ts&#45;&gt;src/index.ts -->
<g id="edge22" class="edge">
<title>test/currency/currencies.test.ts&#45;&gt;src/index.ts</title>
<path fill="none" stroke="#000000" stroke-width="2" stroke-opacity="0.200000" d="M130.09,-498.43C137.47,-495.18 144.23,-490.59 149,-484.12 170.9,-454.42 134.35,-181.25 157,-152.12 161.45,-146.39 168.05,-142.88 175,-140.76"/>
<polygon fill="#000000" fill-opacity="0.200000" stroke="#000000" stroke-width="2" stroke-opacity="0.200000" points="175.57,-142.78 180.88,-139.29 174.55,-138.71 175.57,-142.78"/>
</g>
<!-- test/currency/mixins/Linked.test.ts -->
<g id="node16" class="node">
<title>test/currency/mixins/Linked.test.ts</title>
<g id="a_node16"><a xlink:href="test/currency/mixins/Linked.test.ts" xlink:title="Linked.test.ts">
<path fill="#ddfeff" stroke="black" d="M115.5,-549.12C115.5,-549.12 49.5,-549.12 49.5,-549.12 46.5,-549.12 43.5,-546.12 43.5,-543.12 43.5,-543.12 43.5,-537.12 43.5,-537.12 43.5,-534.12 46.5,-531.12 49.5,-531.12 49.5,-531.12 115.5,-531.12 115.5,-531.12 118.5,-531.12 121.5,-534.12 121.5,-537.12 121.5,-537.12 121.5,-543.12 121.5,-543.12 121.5,-546.12 118.5,-549.12 115.5,-549.12"/>
<text text-anchor="start" x="51.5" y="-537.92" font-family="Helvetica,sans-Serif" font-size="9.00">Linked.test.ts</text>
</a>
</g>
</g>
<!-- test/currency/mixins/Linked.test.ts&#45;&gt;src/index.ts -->
<g id="edge23" class="edge">
<title>test/currency/mixins/Linked.test.ts&#45;&gt;src/index.ts</title>
<path fill="none" stroke="#000000" stroke-width="2" stroke-opacity="0.200000" d="M121.6,-540.95C131.98,-539.18 142.22,-535.2 149,-527.12 162.39,-511.16 144.23,-168.59 157,-152.12 161.44,-146.39 168.04,-142.87 174.98,-140.75"/>
<polygon fill="#000000" fill-opacity="0.200000" stroke="#000000" stroke-width="2" stroke-opacity="0.200000" points="175.56,-142.77 180.87,-139.28 174.54,-138.7 175.56,-142.77"/>
</g>
<!-- test/utils.ts -->
<g id="node17" class="node">
<title>test/utils.ts</title>
<g id="a_node17"><a xlink:href="test/utils.ts" xlink:title="utils.ts">
<path fill="#ddfeff" stroke="black" d="M229,-588.12C229,-588.12 187,-588.12 187,-588.12 184,-588.12 181,-585.12 181,-582.12 181,-582.12 181,-576.12 181,-576.12 181,-573.12 184,-570.12 187,-570.12 187,-570.12 229,-570.12 229,-570.12 232,-570.12 235,-573.12 235,-576.12 235,-576.12 235,-582.12 235,-582.12 235,-585.12 232,-588.12 229,-588.12"/>
<text text-anchor="start" x="192.5" y="-576.92" font-family="Helvetica,sans-Serif" font-size="9.00">utils.ts</text>
</a>
</g>
</g>
<!-- test/currency/mixins/Linked.test.ts&#45;&gt;test/utils.ts -->
<g id="edge24" class="edge">
<title>test/currency/mixins/Linked.test.ts&#45;&gt;test/utils.ts</title>
<path fill="none" stroke="#000000" stroke-width="2" stroke-opacity="0.200000" d="M121.62,-546.18C130.7,-548.03 140.27,-550.34 149,-553.12 160.89,-556.91 173.59,-562.42 184.06,-567.4"/>
<polygon fill="#000000" fill-opacity="0.200000" stroke="#000000" stroke-width="2" stroke-opacity="0.200000" points="183.32,-569.37 189.64,-570.09 185.15,-565.59 183.32,-569.37"/>
</g>
<!-- test/e2e.test.ts -->
<g id="node18" class="node">
<title>test/e2e.test.ts</title>
<g id="a_node18"><a xlink:href="test/e2e.test.ts" xlink:title="e2e.test.ts">
<path fill="#ddfeff" stroke="black" d="M109,-627.12C109,-627.12 56,-627.12 56,-627.12 53,-627.12 50,-624.12 50,-621.12 50,-621.12 50,-615.12 50,-615.12 50,-612.12 53,-609.12 56,-609.12 56,-609.12 109,-609.12 109,-609.12 112,-609.12 115,-612.12 115,-615.12 115,-615.12 115,-621.12 115,-621.12 115,-624.12 112,-627.12 109,-627.12"/>
<text text-anchor="start" x="58" y="-615.92" font-family="Helvetica,sans-Serif" font-size="9.00">e2e.test.ts</text>
</a>
</g>
</g>
<!-- test/e2e.test.ts&#45;&gt;src/index.ts -->
<g id="edge25" class="edge">
<title>test/e2e.test.ts&#45;&gt;src/index.ts</title>
<path fill="none" stroke="#000000" stroke-width="2" stroke-opacity="0.200000" d="M110.22,-609.07C124.4,-602.76 140.58,-592.8 149,-578.12 160.78,-557.58 142.52,-170.84 157,-152.12 161.44,-146.38 168.03,-142.87 174.97,-140.75"/>
<polygon fill="#000000" fill-opacity="0.200000" stroke="#000000" stroke-width="2" stroke-opacity="0.200000" points="175.55,-142.77 180.86,-139.27 174.53,-138.69 175.55,-142.77"/>
</g>
<!-- test/e2e.test.ts&#45;&gt;test/utils.ts -->
<g id="edge26" class="edge">
<title>test/e2e.test.ts&#45;&gt;test/utils.ts</title>
<path fill="none" stroke="#000000" stroke-width="2" stroke-opacity="0.200000" d="M112.14,-609.07C130.87,-603.16 155.37,-595.42 174.77,-589.3"/>
<polygon fill="#000000" fill-opacity="0.200000" stroke="#000000" stroke-width="2" stroke-opacity="0.200000" points="175.53,-591.26 180.62,-587.45 174.27,-587.25 175.53,-591.26"/>
</g>
<!-- test/producer/mixins/Diminishing.test.ts -->
<g id="node19" class="node">
<title>test/producer/mixins/Diminishing.test.ts</title>
<g id="a_node19"><a xlink:href="test/producer/mixins/Diminishing.test.ts" xlink:title="Diminishing.test.ts">
<path fill="#ddfeff" stroke="black" d="M127,-343.12C127,-343.12 38,-343.12 38,-343.12 35,-343.12 32,-340.12 32,-337.12 32,-337.12 32,-331.12 32,-331.12 32,-328.12 35,-325.12 38,-325.12 38,-325.12 127,-325.12 127,-325.12 130,-325.12 133,-328.12 133,-331.12 133,-331.12 133,-337.12 133,-337.12 133,-340.12 130,-343.12 127,-343.12"/>
<text text-anchor="start" x="40" y="-331.92" font-family="Helvetica,sans-Serif" font-size="9.00">Diminishing.test.ts</text>
</a>
</g>
</g>
<!-- test/producer/mixins/Diminishing.test.ts&#45;&gt;src/index.ts -->
<g id="edge27" class="edge">
<title>test/producer/mixins/Diminishing.test.ts&#45;&gt;src/index.ts</title>
<path fill="none" stroke="#000000" stroke-width="2" stroke-opacity="0.200000" d="M84.4,-324.96C87.81,-295.26 102.66,-200.75 157,-152.12 162.04,-147.61 168.42,-144.54 174.92,-142.45"/>
<polygon fill="#000000" fill-opacity="0.200000" stroke="#000000" stroke-width="2" stroke-opacity="0.200000" points="175.67,-144.43 180.89,-140.8 174.55,-140.38 175.67,-144.43"/>
</g>
<!-- test/producer/mixins/Diminishing.test.ts&#45;&gt;src/util/easings.ts -->
<g id="edge28" class="edge">
<title>test/producer/mixins/Diminishing.test.ts&#45;&gt;src/util/easings.ts</title>
<path fill="none" stroke="#000000" stroke-width="2" stroke-opacity="0.200000" d="M84.24,-324.88C88.24,-277.53 108.87,-62.53 157,-21.12 202.97,18.43 232.36,-10.12 293,-10.12 293,-10.12 293,-10.12 369,-10.12 439.34,-10.12 458.18,-11.46 526,-30.12 533.48,-32.18 541.32,-35.22 548.37,-38.32"/>
<polygon fill="#000000" fill-opacity="0.200000" stroke="#000000" stroke-width="2" stroke-opacity="0.200000" points="547.75,-40.34 554.08,-40.91 549.48,-36.52 547.75,-40.34"/>
</g>
<!-- test/producer/producers.test.ts -->
<g id="node20" class="node">
<title>test/producer/producers.test.ts</title>
<g id="a_node20"><a xlink:href="test/producer/producers.test.ts" xlink:title="producers.test.ts">
<path fill="#ddfeff" stroke="black" d="M123.5,-395.12C123.5,-395.12 41.5,-395.12 41.5,-395.12 38.5,-395.12 35.5,-392.12 35.5,-389.12 35.5,-389.12 35.5,-383.12 35.5,-383.12 35.5,-380.12 38.5,-377.12 41.5,-377.12 41.5,-377.12 123.5,-377.12 123.5,-377.12 126.5,-377.12 129.5,-380.12 129.5,-383.12 129.5,-383.12 129.5,-389.12 129.5,-389.12 129.5,-392.12 126.5,-395.12 123.5,-395.12"/>
<text text-anchor="start" x="43.5" y="-383.92" font-family="Helvetica,sans-Serif" font-size="9.00">producers.test.ts</text>
</a>
</g>
</g>
<!-- test/producer/producers.test.ts&#45;&gt;src/index.ts -->
<g id="edge29" class="edge">
<title>test/producer/producers.test.ts&#45;&gt;src/index.ts</title>
<path fill="none" stroke="#000000" stroke-width="2" stroke-opacity="0.200000" d="M129.7,-384.25C137.12,-381.89 143.99,-378.09 149,-372.12 164.73,-353.38 141.87,-171.34 157,-152.12 161.49,-146.42 168.09,-142.92 175.04,-140.8"/>
<polygon fill="#000000" fill-opacity="0.200000" stroke="#000000" stroke-width="2" stroke-opacity="0.200000" points="175.62,-142.82 180.92,-139.33 174.59,-138.75 175.62,-142.82"/>
</g>
<!-- test/schema/base.test.ts -->
<g id="node21" class="node">
<title>test/schema/base.test.ts</title>
<g id="a_node21"><a xlink:href="test/schema/base.test.ts" xlink:title="base.test.ts">
<path fill="#ddfeff" stroke="black" d="M111,-455.12C111,-455.12 54,-455.12 54,-455.12 51,-455.12 48,-452.12 48,-449.12 48,-449.12 48,-443.12 48,-443.12 48,-440.12 51,-437.12 54,-437.12 54,-437.12 111,-437.12 111,-437.12 114,-437.12 117,-440.12 117,-443.12 117,-443.12 117,-449.12 117,-449.12 117,-452.12 114,-455.12 111,-455.12"/>
<text text-anchor="start" x="56" y="-443.92" font-family="Helvetica,sans-Serif" font-size="9.00">base.test.ts</text>
</a>
</g>
</g>
<!-- test/schema/base.test.ts&#45;&gt;src/index.ts -->
<g id="edge30" class="edge">
<title>test/schema/base.test.ts&#45;&gt;src/index.ts</title>
<path fill="none" stroke="#000000" stroke-width="2" stroke-opacity="0.200000" d="M117.15,-442.75C129.13,-439.75 141.5,-434.24 149,-424.12 167.01,-399.83 138.38,-175.94 157,-152.12 161.47,-146.4 168.07,-142.9 175.02,-140.78"/>
<polygon fill="#000000" fill-opacity="0.200000" stroke="#000000" stroke-width="2" stroke-opacity="0.200000" points="175.59,-142.8 180.9,-139.31 174.57,-138.73 175.59,-142.8"/>
</g>
</g>
</svg>
