<?xml version="1.0" encoding="UTF-8" standalone="no"?>
<!DOCTYPE svg PUBLIC "-//W3C//DTD SVG 1.1//EN"
 "http://www.w3.org/Graphics/SVG/1.1/DTD/svg11.dtd">
<!-- Generated by graphviz version 8.0.4 (20230421.1958)
 -->
<!-- Title: dependency&#45;cruiser output Pages: 1 -->
<svg width="616pt" height="668pt"
 viewBox="0.00 0.00 616.25 668.38" xmlns="http://www.w3.org/2000/svg" xmlns:xlink="http://www.w3.org/1999/xlink">
<g id="graph0" class="graph" transform="scale(1 1) rotate(0) translate(4 664.38)">
<title>dependency&#45;cruiser output</title>
<polygon fill="white" stroke="none" points="-4,4 -4,-664.38 612.25,-664.38 612.25,4 -4,4"/>
<g id="clust1" class="cluster">
<title>cluster_src</title>
<path fill="#ffffff" stroke="black" stroke-width="2" d="M158.25,-16.38C158.25,-16.38 588.25,-16.38 588.25,-16.38 594.25,-16.38 600.25,-22.38 600.25,-28.38 600.25,-28.38 600.25,-280.38 600.25,-280.38 600.25,-286.38 594.25,-292.38 588.25,-292.38 588.25,-292.38 158.25,-292.38 158.25,-292.38 152.25,-292.38 146.25,-286.38 146.25,-280.38 146.25,-280.38 146.25,-28.38 146.25,-28.38 146.25,-22.38 152.25,-16.38 158.25,-16.38"/>
<text text-anchor="middle" x="373.25" y="-279.83" font-family="Helvetica,sans-Serif" font-weight="bold" font-size="9.00">src</text>
</g>
<g id="clust2" class="cluster">
<title>cluster_src/currency</title>
<path fill="#ffffff" stroke="black" stroke-width="2" d="M252.75,-144.38C252.75,-144.38 384.75,-144.38 384.75,-144.38 390.75,-144.38 396.75,-150.38 396.75,-156.38 396.75,-156.38 396.75,-244.38 396.75,-244.38 396.75,-250.38 390.75,-256.38 384.75,-256.38 384.75,-256.38 252.75,-256.38 252.75,-256.38 246.75,-256.38 240.75,-250.38 240.75,-244.38 240.75,-244.38 240.75,-156.38 240.75,-156.38 240.75,-150.38 246.75,-144.38 252.75,-144.38"/>
<text text-anchor="middle" x="318.75" y="-243.83" font-family="Helvetica,sans-Serif" font-weight="bold" font-size="9.00">currency</text>
</g>
<g id="clust3" class="cluster">
<title>cluster_src/currency/mixins</title>
<path fill="#ffffff" stroke="black" stroke-width="2" d="M330.75,-178.38C330.75,-178.38 376.75,-178.38 376.75,-178.38 382.75,-178.38 388.75,-184.38 388.75,-190.38 388.75,-190.38 388.75,-218.38 388.75,-218.38 388.75,-224.38 382.75,-230.38 376.75,-230.38 376.75,-230.38 330.75,-230.38 330.75,-230.38 324.75,-230.38 318.75,-224.38 318.75,-218.38 318.75,-218.38 318.75,-190.38 318.75,-190.38 318.75,-184.38 324.75,-178.38 330.75,-178.38"/>
<text text-anchor="middle" x="353.75" y="-217.83" font-family="Helvetica,sans-Serif" font-weight="bold" font-size="9.00">mixins</text>
</g>
<g id="clust4" class="cluster">
<title>cluster_src/game</title>
<path fill="#ffffff" stroke="black" stroke-width="2" d="M252.75,-84.38C252.75,-84.38 298.75,-84.38 298.75,-84.38 304.75,-84.38 310.75,-90.38 310.75,-96.38 310.75,-96.38 310.75,-124.38 310.75,-124.38 310.75,-130.38 304.75,-136.38 298.75,-136.38 298.75,-136.38 252.75,-136.38 252.75,-136.38 246.75,-136.38 240.75,-130.38 240.75,-124.38 240.75,-124.38 240.75,-96.38 240.75,-96.38 240.75,-90.38 246.75,-84.38 252.75,-84.38"/>
<text text-anchor="middle" x="275.75" y="-123.83" font-family="Helvetica,sans-Serif" font-weight="bold" font-size="9.00">game</text>
</g>
<g id="clust5" class="cluster">
<title>cluster_src/number</title>
<path fill="#ffffff" stroke="black" stroke-width="2" d="M166.25,-214.38C166.25,-214.38 220.75,-214.38 220.75,-214.38 226.75,-214.38 232.75,-220.38 232.75,-226.38 232.75,-226.38 232.75,-254.38 232.75,-254.38 232.75,-260.38 226.75,-266.38 220.75,-266.38 220.75,-266.38 166.25,-266.38 166.25,-266.38 160.25,-266.38 154.25,-260.38 154.25,-254.38 154.25,-254.38 154.25,-226.38 154.25,-226.38 154.25,-220.38 160.25,-214.38 166.25,-214.38"/>
<text text-anchor="middle" x="193.5" y="-253.83" font-family="Helvetica,sans-Serif" font-weight="bold" font-size="9.00">number</text>
</g>
<g id="clust6" class="cluster">
<title>cluster_src/producer</title>
<path fill="#ffffff" stroke="black" stroke-width="2" d="M330.75,-24.38C330.75,-24.38 490.5,-24.38 490.5,-24.38 496.5,-24.38 502.5,-30.38 502.5,-36.38 502.5,-36.38 502.5,-124.38 502.5,-124.38 502.5,-130.38 496.5,-136.38 490.5,-136.38 490.5,-136.38 330.75,-136.38 330.75,-136.38 324.75,-136.38 318.75,-130.38 318.75,-124.38 318.75,-124.38 318.75,-36.38 318.75,-36.38 318.75,-30.38 324.75,-24.38 330.75,-24.38"/>
<text text-anchor="middle" x="410.62" y="-123.83" font-family="Helvetica,sans-Serif" font-weight="bold" font-size="9.00">producer</text>
</g>
<g id="clust7" class="cluster">
<title>cluster_src/producer/mixins</title>
<path fill="#ffffff" stroke="black" stroke-width="2" d="M416.75,-32.38C416.75,-32.38 482.5,-32.38 482.5,-32.38 488.5,-32.38 494.5,-38.38 494.5,-44.38 494.5,-44.38 494.5,-72.38 494.5,-72.38 494.5,-78.38 488.5,-84.38 482.5,-84.38 482.5,-84.38 416.75,-84.38 416.75,-84.38 410.75,-84.38 404.75,-78.38 404.75,-72.38 404.75,-72.38 404.75,-44.38 404.75,-44.38 404.75,-38.38 410.75,-32.38 416.75,-32.38"/>
<text text-anchor="middle" x="449.62" y="-71.83" font-family="Helvetica,sans-Serif" font-weight="bold" font-size="9.00">mixins</text>
</g>
<g id="clust8" class="cluster">
<title>cluster_src/serialize</title>
<path fill="#ffffff" stroke="black" stroke-width="2" d="M426.62,-144.38C426.62,-144.38 580.25,-144.38 580.25,-144.38 586.25,-144.38 592.25,-150.38 592.25,-156.38 592.25,-156.38 592.25,-214.38 592.25,-214.38 592.25,-220.38 586.25,-226.38 580.25,-226.38 580.25,-226.38 426.62,-226.38 426.62,-226.38 420.62,-226.38 414.62,-220.38 414.62,-214.38 414.62,-214.38 414.62,-156.38 414.62,-156.38 414.62,-150.38 420.62,-144.38 426.62,-144.38"/>
<text text-anchor="middle" x="503.44" y="-213.83" font-family="Helvetica,sans-Serif" font-weight="bold" font-size="9.00">serialize</text>
</g>
<g id="clust9" class="cluster">
<title>cluster_src/util</title>
<path fill="#ffffff" stroke="black" stroke-width="2" d="M522.75,-32.38C522.75,-32.38 572,-32.38 572,-32.38 578,-32.38 584,-38.38 584,-44.38 584,-44.38 584,-102.38 584,-102.38 584,-108.38 578,-114.38 572,-114.38 572,-114.38 522.75,-114.38 522.75,-114.38 516.75,-114.38 510.75,-108.38 510.75,-102.38 510.75,-102.38 510.75,-44.38 510.75,-44.38 510.75,-38.38 516.75,-32.38 522.75,-32.38"/>
<text text-anchor="middle" x="547.38" y="-101.83" font-family="Helvetica,sans-Serif" font-weight="bold" font-size="9.00">util</text>
</g>
<g id="clust10" class="cluster">
<title>cluster_test</title>
<path fill="#ffffff" stroke="black" stroke-width="2" d="M20,-300.38C20,-300.38 216.5,-300.38 216.5,-300.38 222.5,-300.38 228.5,-306.38 228.5,-312.38 228.5,-312.38 228.5,-640.38 228.5,-640.38 228.5,-646.38 222.5,-652.38 216.5,-652.38 216.5,-652.38 20,-652.38 20,-652.38 14,-652.38 8,-646.38 8,-640.38 8,-640.38 8,-312.38 8,-312.38 8,-306.38 14,-300.38 20,-300.38"/>
<text text-anchor="middle" x="118.25" y="-639.83" font-family="Helvetica,sans-Serif" font-weight="bold" font-size="9.00">test</text>
</g>
<g id="clust11" class="cluster">
<title>cluster_test/currency</title>
<path fill="#ffffff" stroke="black" stroke-width="2" d="M38.5,-488.38C38.5,-488.38 115.75,-488.38 115.75,-488.38 121.75,-488.38 127.75,-494.38 127.75,-500.38 127.75,-500.38 127.75,-588.38 127.75,-588.38 127.75,-594.38 121.75,-600.38 115.75,-600.38 115.75,-600.38 38.5,-600.38 38.5,-600.38 32.5,-600.38 26.5,-594.38 26.5,-588.38 26.5,-588.38 26.5,-500.38 26.5,-500.38 26.5,-494.38 32.5,-488.38 38.5,-488.38"/>
<text text-anchor="middle" x="77.12" y="-587.83" font-family="Helvetica,sans-Serif" font-weight="bold" font-size="9.00">currency</text>
</g>
<g id="clust12" class="cluster">
<title>cluster_test/currency/mixins</title>
<path fill="#ffffff" stroke="black" stroke-width="2" d="M46.5,-522.38C46.5,-522.38 107.75,-522.38 107.75,-522.38 113.75,-522.38 119.75,-528.38 119.75,-534.38 119.75,-534.38 119.75,-562.38 119.75,-562.38 119.75,-568.38 113.75,-574.38 107.75,-574.38 107.75,-574.38 46.5,-574.38 46.5,-574.38 40.5,-574.38 34.5,-568.38 34.5,-562.38 34.5,-562.38 34.5,-534.38 34.5,-534.38 34.5,-528.38 40.5,-522.38 46.5,-522.38"/>
<text text-anchor="middle" x="77.12" y="-561.83" font-family="Helvetica,sans-Serif" font-weight="bold" font-size="9.00">mixins</text>
</g>
<g id="clust13" class="cluster">
<title>cluster_test/producer</title>
<path fill="#ffffff" stroke="black" stroke-width="2" d="M28,-308.38C28,-308.38 126.25,-308.38 126.25,-308.38 132.25,-308.38 138.25,-314.38 138.25,-320.38 138.25,-320.38 138.25,-408.38 138.25,-408.38 138.25,-414.38 132.25,-420.38 126.25,-420.38 126.25,-420.38 28,-420.38 28,-420.38 22,-420.38 16,-414.38 16,-408.38 16,-408.38 16,-320.38 16,-320.38 16,-314.38 22,-308.38 28,-308.38"/>
<text text-anchor="middle" x="77.12" y="-407.83" font-family="Helvetica,sans-Serif" font-weight="bold" font-size="9.00">producer</text>
</g>
<g id="clust14" class="cluster">
<title>cluster_test/producer/mixins</title>
<path fill="#ffffff" stroke="black" stroke-width="2" d="M36,-316.38C36,-316.38 118.25,-316.38 118.25,-316.38 124.25,-316.38 130.25,-322.38 130.25,-328.38 130.25,-328.38 130.25,-356.38 130.25,-356.38 130.25,-362.38 124.25,-368.38 118.25,-368.38 118.25,-368.38 36,-368.38 36,-368.38 30,-368.38 24,-362.38 24,-356.38 24,-356.38 24,-328.38 24,-328.38 24,-322.38 30,-316.38 36,-316.38"/>
<text text-anchor="middle" x="77.12" y="-355.83" font-family="Helvetica,sans-Serif" font-weight="bold" font-size="9.00">mixins</text>
</g>
<g id="clust15" class="cluster">
<title>cluster_test/schema</title>
<path fill="#ffffff" stroke="black" stroke-width="2" d="M50.25,-428.38C50.25,-428.38 104,-428.38 104,-428.38 110,-428.38 116,-434.38 116,-440.38 116,-440.38 116,-468.38 116,-468.38 116,-474.38 110,-480.38 104,-480.38 104,-480.38 50.25,-480.38 50.25,-480.38 44.25,-480.38 38.25,-474.38 38.25,-468.38 38.25,-468.38 38.25,-440.38 38.25,-440.38 38.25,-434.38 44.25,-428.38 50.25,-428.38"/>
<text text-anchor="middle" x="77.12" y="-467.83" font-family="Helvetica,sans-Serif" font-weight="bold" font-size="9.00">schema</text>
</g>
<!-- src/currency/Currency.ts -->
<g id="node1" class="node">
<title>src/currency/Currency.ts</title>
<g id="a_node1"><a xlink:href="src/currency/Currency.ts" xlink:title="Currency.ts">
<path fill="#ddfeff" stroke="black" d="M379.08,-170.26C379.08,-170.26 328.42,-170.26 328.42,-170.26 325.46,-170.26 322.5,-167.3 322.5,-164.34 322.5,-164.34 322.5,-158.42 322.5,-158.42 322.5,-155.47 325.46,-152.51 328.42,-152.51 328.42,-152.51 379.08,-152.51 379.08,-152.51 382.04,-152.51 385,-155.47 385,-158.42 385,-158.42 385,-164.34 385,-164.34 385,-167.3 382.04,-170.26 379.08,-170.26"/>
<text text-anchor="start" x="330.5" y="-157.71" font-family="Helvetica,sans-Serif" font-size="9.00">Currency.ts</text>
</a>
</g>
</g>
<!-- src/game/Game.ts -->
<g id="node2" class="node">
<title>src/game/Game.ts</title>
<g id="a_node2"><a xlink:href="src/game/Game.ts" xlink:title="Game.ts">
<path fill="#ddfeff" stroke="black" d="M296.83,-110.26C296.83,-110.26 254.67,-110.26 254.67,-110.26 251.71,-110.26 248.75,-107.3 248.75,-104.34 248.75,-104.34 248.75,-98.42 248.75,-98.42 248.75,-95.47 251.71,-92.51 254.67,-92.51 254.67,-92.51 296.83,-92.51 296.83,-92.51 299.79,-92.51 302.75,-95.47 302.75,-98.42 302.75,-98.42 302.75,-104.34 302.75,-104.34 302.75,-107.3 299.79,-110.26 296.83,-110.26"/>
<text text-anchor="start" x="258.88" y="-97.71" font-family="Helvetica,sans-Serif" font-size="9.00">Game.ts</text>
</a>
</g>
</g>
<!-- src/currency/Currency.ts&#45;&gt;src/game/Game.ts -->
<g id="edge1" class="edge">
<title>src/currency/Currency.ts&#45;&gt;src/game/Game.ts</title>
<path fill="none" stroke="#000000" stroke-width="2" stroke-opacity="0.200000" d="M337.16,-152.04C331.25,-148.3 324.55,-143.84 318.75,-139.38 309.67,-132.41 300.17,-123.93 292.5,-116.74"/>
<polygon fill="none" stroke="#000000" stroke-width="2" stroke-opacity="0.200000" points="293.84,-115.21 288.04,-112.59 290.94,-118.25 293.84,-115.21"/>
</g>
<!-- src/producer/Producer.ts -->
<g id="node3" class="node">
<title>src/producer/Producer.ts</title>
<g id="a_node3"><a xlink:href="src/producer/Producer.ts" xlink:title="Producer.ts">
<path fill="#ddfeff" stroke="black" d="M474.96,-110.26C474.96,-110.26 424.29,-110.26 424.29,-110.26 421.33,-110.26 418.38,-107.3 418.38,-104.34 418.38,-104.34 418.38,-98.42 418.38,-98.42 418.38,-95.47 421.33,-92.51 424.29,-92.51 424.29,-92.51 474.96,-92.51 474.96,-92.51 477.92,-92.51 480.88,-95.47 480.88,-98.42 480.88,-98.42 480.88,-104.34 480.88,-104.34 480.88,-107.3 477.92,-110.26 474.96,-110.26"/>
<text text-anchor="start" x="426.38" y="-97.71" font-family="Helvetica,sans-Serif" font-size="9.00">Producer.ts</text>
</a>
</g>
</g>
<!-- src/currency/Currency.ts&#45;&gt;src/producer/Producer.ts -->
<g id="edge2" class="edge">
<title>src/currency/Currency.ts&#45;&gt;src/producer/Producer.ts</title>
<path fill="none" stroke="#000000" stroke-width="2" stroke-opacity="0.200000" d="M373.9,-152.11C381.19,-148.39 389.48,-143.91 396.75,-139.38 408.23,-132.23 420.46,-123.34 430.16,-115.96"/>
<polygon fill="#000000" fill-opacity="0.200000" stroke="#000000" stroke-width="2" stroke-opacity="0.200000" points="431.56,-116.98 435.03,-111.66 428.99,-113.66 431.56,-116.98"/>
</g>
<!-- src/serialize/index.ts -->
<g id="node4" class="node">
<title>src/serialize/index.ts</title>
<g id="a_node4"><a xlink:href="src/serialize/index.ts" xlink:title="index.ts">
<path fill="#ddfeff" stroke="black" d="M470.71,-196.26C470.71,-196.26 428.54,-196.26 428.54,-196.26 425.58,-196.26 422.62,-193.3 422.62,-190.34 422.62,-190.34 422.62,-184.42 422.62,-184.42 422.62,-181.47 425.58,-178.51 428.54,-178.51 428.54,-178.51 470.71,-178.51 470.71,-178.51 473.67,-178.51 476.62,-181.47 476.62,-184.42 476.62,-184.42 476.62,-190.34 476.62,-190.34 476.62,-193.3 473.67,-196.26 470.71,-196.26"/>
<text text-anchor="start" x="433.88" y="-183.71" font-family="Helvetica,sans-Serif" font-size="9.00">index.ts</text>
</a>
</g>
</g>
<!-- src/currency/Currency.ts&#45;&gt;src/serialize/index.ts -->
<g id="edge3" class="edge">
<title>src/currency/Currency.ts&#45;&gt;src/serialize/index.ts</title>
<path fill="none" stroke="#000000" stroke-width="2" stroke-opacity="0.200000" d="M385.49,-169.9C394.48,-172.39 404.38,-175.13 413.62,-177.69"/>
<polygon fill="#000000" fill-opacity="0.200000" stroke="#000000" stroke-width="2" stroke-opacity="0.200000" points="413.89,-180.49 420.23,-180.07 415.01,-176.45 413.89,-180.49"/>
</g>
<!-- src/serialize/Serializable.ts -->
<g id="node5" class="node">
<title>src/serialize/Serializable.ts</title>
<g id="a_node5"><a xlink:href="src/serialize/Serializable.ts" xlink:title="Serializable.ts">
<path fill="#ddfeff" stroke="black" d="M578.33,-170.26C578.33,-170.26 516.42,-170.26 516.42,-170.26 513.46,-170.26 510.5,-167.3 510.5,-164.34 510.5,-164.34 510.5,-158.42 510.5,-158.42 510.5,-155.47 513.46,-152.51 516.42,-152.51 516.42,-152.51 578.33,-152.51 578.33,-152.51 581.29,-152.51 584.25,-155.47 584.25,-158.42 584.25,-158.42 584.25,-164.34 584.25,-164.34 584.25,-167.3 581.29,-170.26 578.33,-170.26"/>
<text text-anchor="start" x="518.5" y="-157.71" font-family="Helvetica,sans-Serif" font-size="9.00">Serializable.ts</text>
</a>
</g>
</g>
<!-- src/currency/Currency.ts&#45;&gt;src/serialize/Serializable.ts -->
<g id="edge4" class="edge">
<title>src/currency/Currency.ts&#45;&gt;src/serialize/Serializable.ts</title>
<path fill="none" stroke="#000000" stroke-width="2" stroke-opacity="0.200000" d="M385.11,-161.38C416.44,-161.38 465.65,-161.38 501.47,-161.38"/>
<polygon fill="#000000" fill-opacity="0.200000" stroke="#000000" stroke-width="2" stroke-opacity="0.200000" points="501.27,-163.48 507.27,-161.38 501.27,-159.28 501.27,-163.48"/>
</g>
<!-- src/currency/mixins/Linked.ts -->
<g id="node6" class="node">
<title>src/currency/mixins/Linked.ts</title>
<g id="a_node6"><a xlink:href="src/currency/mixins/Linked.ts" xlink:title="Linked.ts">
<path fill="#ddfeff" stroke="black" d="M374.83,-204.26C374.83,-204.26 332.67,-204.26 332.67,-204.26 329.71,-204.26 326.75,-201.3 326.75,-198.34 326.75,-198.34 326.75,-192.42 326.75,-192.42 326.75,-189.47 329.71,-186.51 332.67,-186.51 332.67,-186.51 374.83,-186.51 374.83,-186.51 377.79,-186.51 380.75,-189.47 380.75,-192.42 380.75,-192.42 380.75,-198.34 380.75,-198.34 380.75,-201.3 377.79,-204.26 374.83,-204.26"/>
<text text-anchor="start" x="335.38" y="-191.71" font-family="Helvetica,sans-Serif" font-size="9.00">Linked.ts</text>
</a>
</g>
</g>
<!-- src/currency/Currency.ts&#45;&gt;src/currency/mixins/Linked.ts -->
<g id="edge5" class="edge">
<title>src/currency/Currency.ts&#45;&gt;src/currency/mixins/Linked.ts</title>
<path fill="none" stroke="#000000" stroke-width="2" stroke-opacity="0.200000" d="M353.75,-170.68C353.75,-172.93 353.75,-175.18 353.75,-177.43"/>
<polygon fill="none" stroke="#000000" stroke-width="2" stroke-opacity="0.200000" points="351.65,-177.12 353.75,-183.12 355.85,-177.12 351.65,-177.12"/>
</g>
<!-- src/currency/index.ts -->
<g id="node7" class="node">
<title>src/currency/index.ts</title>
<g id="a_node7"><a xlink:href="src/currency/index.ts" xlink:title="index.ts">
<path fill="#ddfeff" stroke="black" d="M296.83,-187.26C296.83,-187.26 254.67,-187.26 254.67,-187.26 251.71,-187.26 248.75,-184.3 248.75,-181.34 248.75,-181.34 248.75,-175.42 248.75,-175.42 248.75,-172.47 251.71,-169.51 254.67,-169.51 254.67,-169.51 296.83,-169.51 296.83,-169.51 299.79,-169.51 302.75,-172.47 302.75,-175.42 302.75,-175.42 302.75,-181.34 302.75,-181.34 302.75,-184.3 299.79,-187.26 296.83,-187.26"/>
<text text-anchor="start" x="260" y="-174.71" font-family="Helvetica,sans-Serif" font-size="9.00">index.ts</text>
</a>
</g>
</g>
<!-- src/game/Game.ts&#45;&gt;src/currency/index.ts -->
<g id="edge9" class="edge">
<title>src/game/Game.ts&#45;&gt;src/currency/index.ts</title>
<path fill="none" stroke="#000000" stroke-width="2" stroke-opacity="0.200000" d="M275.75,-110.71C275.75,-127.29 275.75,-143.87 275.75,-160.46"/>
<polygon fill="none" stroke="#000000" stroke-width="2" stroke-opacity="0.200000" points="273.65,-160.13 275.75,-166.13 277.85,-160.13 273.65,-160.13"/>
</g>
<!-- src/producer/index.ts -->
<g id="node8" class="node">
<title>src/producer/index.ts</title>
<g id="a_node8"><a xlink:href="src/producer/index.ts" xlink:title="index.ts">
<path fill="#ddfeff" stroke="black" d="M374.83,-97.26C374.83,-97.26 332.67,-97.26 332.67,-97.26 329.71,-97.26 326.75,-94.3 326.75,-91.34 326.75,-91.34 326.75,-85.42 326.75,-85.42 326.75,-82.47 329.71,-79.51 332.67,-79.51 332.67,-79.51 374.83,-79.51 374.83,-79.51 377.79,-79.51 380.75,-82.47 380.75,-85.42 380.75,-85.42 380.75,-91.34 380.75,-91.34 380.75,-94.3 377.79,-97.26 374.83,-97.26"/>
<text text-anchor="start" x="338" y="-84.71" font-family="Helvetica,sans-Serif" font-size="9.00">index.ts</text>
</a>
</g>
</g>
<!-- src/game/Game.ts&#45;&gt;src/producer/index.ts -->
<g id="edge10" class="edge">
<title>src/game/Game.ts&#45;&gt;src/producer/index.ts</title>
<path fill="none" stroke="#000000" stroke-width="2" stroke-opacity="0.200000" d="M302.9,-96.91C307.63,-96.1 312.62,-95.25 317.55,-94.4"/>
<polygon fill="#000000" fill-opacity="0.200000" stroke="#000000" stroke-width="2" stroke-opacity="0.200000" points="318.73,-95.99 324.29,-92.91 318.02,-91.85 318.73,-95.99"/>
</g>
<!-- src/producer/Producer.ts&#45;&gt;src/serialize/Serializable.ts -->
<g id="edge14" class="edge">
<title>src/producer/Producer.ts&#45;&gt;src/serialize/Serializable.ts</title>
<path fill="none" stroke="#000000" stroke-width="2" stroke-opacity="0.200000" d="M465.59,-110.76C481.33,-120.62 506.26,-136.25 524.27,-147.53"/>
<polygon fill="#000000" fill-opacity="0.200000" stroke="#000000" stroke-width="2" stroke-opacity="0.200000" points="523.32,-149.67 529.52,-151.07 525.55,-146.11 523.32,-149.67"/>
</g>
<!-- src/util/unwrap.ts -->
<g id="node11" class="node">
<title>src/util/unwrap.ts</title>
<g id="a_node11"><a xlink:href="src/util/unwrap.ts" xlink:title="unwrap.ts">
<path fill="#ddfeff" stroke="black" d="M569.33,-88.26C569.33,-88.26 525.42,-88.26 525.42,-88.26 522.46,-88.26 519.5,-85.3 519.5,-82.34 519.5,-82.34 519.5,-76.42 519.5,-76.42 519.5,-73.47 522.46,-70.51 525.42,-70.51 525.42,-70.51 569.33,-70.51 569.33,-70.51 572.29,-70.51 575.25,-73.47 575.25,-76.42 575.25,-76.42 575.25,-82.34 575.25,-82.34 575.25,-85.3 572.29,-88.26 569.33,-88.26"/>
<text text-anchor="start" x="527.5" y="-75.71" font-family="Helvetica,sans-Serif" font-size="9.00">unwrap.ts</text>
</a>
</g>
</g>
<!-- src/producer/Producer.ts&#45;&gt;src/util/unwrap.ts -->
<g id="edge15" class="edge">
<title>src/producer/Producer.ts&#45;&gt;src/util/unwrap.ts</title>
<path fill="none" stroke="#000000" stroke-width="2" stroke-opacity="0.200000" d="M481.18,-94.36C490.49,-92.22 500.8,-89.86 510.42,-87.64"/>
<polygon fill="#000000" fill-opacity="0.200000" stroke="#000000" stroke-width="2" stroke-opacity="0.200000" points="511.64,-89.06 517.02,-85.67 510.7,-84.97 511.64,-89.06"/>
</g>
<!-- src/producer/mixins/Diminishing.ts -->
<g id="node12" class="node">
<title>src/producer/mixins/Diminishing.ts</title>
<g id="a_node12"><a xlink:href="src/producer/mixins/Diminishing.ts" xlink:title="Diminishing.ts">
<path fill="#ddfeff" stroke="black" d="M480.58,-58.26C480.58,-58.26 418.67,-58.26 418.67,-58.26 415.71,-58.26 412.75,-55.3 412.75,-52.34 412.75,-52.34 412.75,-46.42 412.75,-46.42 412.75,-43.47 415.71,-40.51 418.67,-40.51 418.67,-40.51 480.58,-40.51 480.58,-40.51 483.54,-40.51 486.5,-43.47 486.5,-46.42 486.5,-46.42 486.5,-52.34 486.5,-52.34 486.5,-55.3 483.54,-58.26 480.58,-58.26"/>
<text text-anchor="start" x="420.75" y="-45.71" font-family="Helvetica,sans-Serif" font-size="9.00">Diminishing.ts</text>
</a>
</g>
</g>
<!-- src/producer/Producer.ts&#45;&gt;src/producer/mixins/Diminishing.ts -->
<g id="edge16" class="edge">
<title>src/producer/Producer.ts&#45;&gt;src/producer/mixins/Diminishing.ts</title>
<path fill="none" stroke="#000000" stroke-width="2" stroke-opacity="0.200000" d="M449.62,-92.05C449.62,-83.89 449.62,-75.74 449.62,-67.58"/>
<polygon fill="none" stroke="#000000" stroke-width="2" stroke-opacity="0.200000" points="451.73,-67.73 449.62,-61.73 447.53,-67.73 451.73,-67.73"/>
</g>
<!-- src/serialize/index.ts&#45;&gt;src/serialize/Serializable.ts -->
<g id="edge22" class="edge">
<title>src/serialize/index.ts&#45;&gt;src/serialize/Serializable.ts</title>
<path fill="none" stroke="#000000" stroke-width="2" stroke-opacity="0.200000" d="M477.04,-180.21C485.26,-177.98 494.55,-175.46 503.59,-173"/>
<polygon fill="#000000" fill-opacity="0.200000" stroke="#000000" stroke-width="2" stroke-opacity="0.200000" points="504.9,-174.28 510.14,-170.68 503.8,-170.22 504.9,-174.28"/>
</g>
<!-- src/serialize/schema.ts -->
<g id="node14" class="node">
<title>src/serialize/schema.ts</title>
<g id="a_node14"><a xlink:href="src/serialize/schema.ts" xlink:title="schema.ts">
<path fill="#ddfeff" stroke="black" d="M570.08,-200.26C570.08,-200.26 524.67,-200.26 524.67,-200.26 521.71,-200.26 518.75,-197.3 518.75,-194.34 518.75,-194.34 518.75,-188.42 518.75,-188.42 518.75,-185.47 521.71,-182.51 524.67,-182.51 524.67,-182.51 570.08,-182.51 570.08,-182.51 573.04,-182.51 576,-185.47 576,-188.42 576,-188.42 576,-194.34 576,-194.34 576,-197.3 573.04,-200.26 570.08,-200.26"/>
<text text-anchor="start" x="526.75" y="-187.71" font-family="Helvetica,sans-Serif" font-size="9.00">schema.ts</text>
</a>
</g>
</g>
<!-- src/serialize/index.ts&#45;&gt;src/serialize/schema.ts -->
<g id="edge21" class="edge">
<title>src/serialize/index.ts&#45;&gt;src/serialize/schema.ts</title>
<path fill="none" stroke="#000000" stroke-width="2" stroke-opacity="0.200000" d="M477.04,-188.49C487.08,-188.91 498.69,-189.39 509.52,-189.84"/>
<polygon fill="#000000" fill-opacity="0.200000" stroke="#000000" stroke-width="2" stroke-opacity="0.200000" points="509.29,-192.06 515.37,-190.21 509.46,-187.86 509.29,-192.06"/>
</g>
<!-- src/currency/mixins/Linked.ts&#45;&gt;src/currency/Currency.ts -->
<g id="edge8" class="edge">
<title>src/currency/mixins/Linked.ts&#45;&gt;src/currency/Currency.ts</title>
<path fill="none" stroke="#000000" stroke-width="2" stroke-opacity="0.200000" d="M353.75,-186.12C353.75,-183.87 353.75,-181.62 353.75,-179.36"/>
<polygon fill="none" stroke="#000000" stroke-width="2" stroke-opacity="0.200000" points="355.85,-179.68 353.75,-173.68 351.65,-179.68 355.85,-179.68"/>
</g>
<!-- src/currency/index.ts&#45;&gt;src/currency/Currency.ts -->
<g id="edge6" class="edge">
<title>src/currency/index.ts&#45;&gt;src/currency/Currency.ts</title>
<path fill="none" stroke="#000000" stroke-width="2" stroke-opacity="0.200000" d="M302.9,-172.53C306.29,-171.78 309.81,-170.99 313.34,-170.2"/>
<polygon fill="none" stroke="#000000" stroke-width="2" stroke-opacity="0.200000" points="314.7,-171.6 320.1,-168.24 313.78,-167.5 314.7,-171.6"/>
</g>
<!-- src/currency/index.ts&#45;&gt;src/currency/mixins/Linked.ts -->
<g id="edge7" class="edge">
<title>src/currency/index.ts&#45;&gt;src/currency/mixins/Linked.ts</title>
<path fill="none" stroke="#000000" stroke-width="2" stroke-opacity="0.200000" d="M302.9,-184.23C307.63,-185.29 312.62,-186.41 317.55,-187.51"/>
<polygon fill="none" stroke="#000000" stroke-width="2" stroke-opacity="0.200000" points="317.98,-190.2 324.29,-189.46 318.89,-186.1 317.98,-190.2"/>
</g>
<!-- src/producer/index.ts&#45;&gt;src/producer/Producer.ts -->
<g id="edge18" class="edge">
<title>src/producer/index.ts&#45;&gt;src/producer/Producer.ts</title>
<path fill="none" stroke="#000000" stroke-width="2" stroke-opacity="0.200000" d="M381.15,-92.04C389.86,-93.25 399.75,-94.61 409.22,-95.93"/>
<polygon fill="#000000" fill-opacity="0.200000" stroke="#000000" stroke-width="2" stroke-opacity="0.200000" points="409.88,-98.41 416.12,-97.16 410.46,-94.25 409.88,-98.41"/>
</g>
<!-- src/producer/index.ts&#45;&gt;src/producer/mixins/Diminishing.ts -->
<g id="edge17" class="edge">
<title>src/producer/index.ts&#45;&gt;src/producer/mixins/Diminishing.ts</title>
<path fill="none" stroke="#000000" stroke-width="2" stroke-opacity="0.200000" d="M370.59,-79.15C380.25,-73.78 392.96,-67.15 404.75,-62.38 405.36,-62.14 405.97,-61.89 406.59,-61.65"/>
<polygon fill="#000000" fill-opacity="0.200000" stroke="#000000" stroke-width="2" stroke-opacity="0.200000" points="407.93,-63.68 412.86,-59.67 406.5,-59.73 407.93,-63.68"/>
</g>
<!-- src/index.ts -->
<g id="node9" class="node">
<title>src/index.ts</title>
<g id="a_node9"><a xlink:href="src/index.ts" xlink:title="index.ts">
<path fill="#ddfeff" stroke="black" d="M214.58,-206.26C214.58,-206.26 172.42,-206.26 172.42,-206.26 169.46,-206.26 166.5,-203.3 166.5,-200.34 166.5,-200.34 166.5,-194.42 166.5,-194.42 166.5,-191.47 169.46,-188.51 172.42,-188.51 172.42,-188.51 214.58,-188.51 214.58,-188.51 217.54,-188.51 220.5,-191.47 220.5,-194.42 220.5,-194.42 220.5,-200.34 220.5,-200.34 220.5,-203.3 217.54,-206.26 214.58,-206.26"/>
<text text-anchor="start" x="177.75" y="-193.71" font-family="Helvetica,sans-Serif" font-size="9.00">index.ts</text>
</a>
</g>
</g>
<!-- src/index.ts&#45;&gt;src/serialize/index.ts -->
<g id="edge13" class="edge">
<title>src/index.ts&#45;&gt;src/serialize/index.ts</title>
<path fill="none" stroke="#000000" stroke-width="2" stroke-opacity="0.200000" d="M220.73,-202.78C225.3,-204.8 229.59,-207.57 232.75,-211.38 246.56,-228.03 224.25,-245.4 240.75,-259.38 264.49,-279.49 279.97,-263.93 310.75,-259.38 350.25,-253.54 361.89,-252.86 396.75,-233.38 411.09,-225.37 424.89,-212.82 434.64,-202.86"/>
<polygon fill="#000000" fill-opacity="0.200000" stroke="#000000" stroke-width="2" stroke-opacity="0.200000" points="436.11,-204.26 438.71,-198.46 433.06,-201.37 436.11,-204.26"/>
</g>
<!-- src/index.ts&#45;&gt;src/currency/index.ts -->
<g id="edge11" class="edge">
<title>src/index.ts&#45;&gt;src/currency/index.ts</title>
<path fill="none" stroke="#000000" stroke-width="2" stroke-opacity="0.200000" d="M220.78,-191.16C226.87,-189.72 233.46,-188.16 239.86,-186.64"/>
<polygon fill="#000000" fill-opacity="0.200000" stroke="#000000" stroke-width="2" stroke-opacity="0.200000" points="241.06,-188.04 246.41,-184.62 240.09,-183.96 241.06,-188.04"/>
</g>
<!-- src/index.ts&#45;&gt;src/producer/index.ts -->
<g id="edge12" class="edge">
<title>src/index.ts&#45;&gt;src/producer/index.ts</title>
<path fill="none" stroke="#000000" stroke-width="2" stroke-opacity="0.200000" d="M194.92,-188.04C196.51,-165.13 204.14,-106.2 240.75,-81.38 264.02,-65.61 296.63,-69.84 320.67,-76.54"/>
<polygon fill="#000000" fill-opacity="0.200000" stroke="#000000" stroke-width="2" stroke-opacity="0.200000" points="320.75,-79.36 327.1,-79.08 321.97,-75.34 320.75,-79.36"/>
</g>
<!-- src/number/Standard.ts -->
<g id="node10" class="node">
<title>src/number/Standard.ts</title>
<g id="a_node10"><a xlink:href="src/number/Standard.ts" xlink:title="no&#45;orphans">
<path fill="#ccffcc" stroke="orange" d="M218.83,-240.26C218.83,-240.26 168.17,-240.26 168.17,-240.26 165.21,-240.26 162.25,-237.3 162.25,-234.34 162.25,-234.34 162.25,-228.42 162.25,-228.42 162.25,-225.47 165.21,-222.51 168.17,-222.51 168.17,-222.51 218.83,-222.51 218.83,-222.51 221.79,-222.51 224.75,-225.47 224.75,-228.42 224.75,-228.42 224.75,-234.34 224.75,-234.34 224.75,-237.3 221.79,-240.26 218.83,-240.26"/>
<text text-anchor="start" x="170.25" y="-227.71" font-family="Helvetica,sans-Serif" font-size="9.00" fill="orange">Standard.ts</text>
</a>
</g>
</g>
<!-- src/producer/mixins/Diminishing.ts&#45;&gt;src/producer/Producer.ts -->
<g id="edge20" class="edge">
<title>src/producer/mixins/Diminishing.ts&#45;&gt;src/producer/Producer.ts</title>
<path fill="none" stroke="#000000" stroke-width="2" stroke-opacity="0.200000" d="M449.62,-58.73C449.62,-66.88 449.62,-75.04 449.62,-83.2"/>
<polygon fill="none" stroke="#000000" stroke-width="2" stroke-opacity="0.200000" points="447.53,-83.05 449.62,-89.05 451.73,-83.05 447.53,-83.05"/>
</g>
<!-- src/util/easings.ts -->
<g id="node13" class="node">
<title>src/util/easings.ts</title>
<g id="a_node13"><a xlink:href="src/util/easings.ts" xlink:title="easings.ts">
<path fill="#ddfeff" stroke="black" d="M570.08,-58.26C570.08,-58.26 524.67,-58.26 524.67,-58.26 521.71,-58.26 518.75,-55.3 518.75,-52.34 518.75,-52.34 518.75,-46.42 518.75,-46.42 518.75,-43.47 521.71,-40.51 524.67,-40.51 524.67,-40.51 570.08,-40.51 570.08,-40.51 573.04,-40.51 576,-43.47 576,-46.42 576,-46.42 576,-52.34 576,-52.34 576,-55.3 573.04,-58.26 570.08,-58.26"/>
<text text-anchor="start" x="526.75" y="-45.71" font-family="Helvetica,sans-Serif" font-size="9.00">easings.ts</text>
</a>
</g>
</g>
<!-- src/producer/mixins/Diminishing.ts&#45;&gt;src/util/easings.ts -->
<g id="edge19" class="edge">
<title>src/producer/mixins/Diminishing.ts&#45;&gt;src/util/easings.ts</title>
<path fill="none" stroke="#000000" stroke-width="2" stroke-opacity="0.200000" d="M486.82,-49.38C494.36,-49.38 502.31,-49.38 509.86,-49.38"/>
<polygon fill="#000000" fill-opacity="0.200000" stroke="#000000" stroke-width="2" stroke-opacity="0.200000" points="509.49,-51.48 515.49,-49.38 509.49,-47.28 509.49,-51.48"/>
</g>
<!-- test/currency/currencies.test.ts -->
<g id="node15" class="node">
<title>test/currency/currencies.test.ts</title>
<g id="a_node15"><a xlink:href="test/currency/currencies.test.ts" xlink:title="currencies.test.ts">
<path fill="#ddfeff" stroke="black" d="M113.33,-514.26C113.33,-514.26 40.92,-514.26 40.92,-514.26 37.96,-514.26 35,-511.3 35,-508.34 35,-508.34 35,-502.42 35,-502.42 35,-499.47 37.96,-496.51 40.92,-496.51 40.92,-496.51 113.33,-496.51 113.33,-496.51 116.29,-496.51 119.25,-499.47 119.25,-502.42 119.25,-502.42 119.25,-508.34 119.25,-508.34 119.25,-511.3 116.29,-514.26 113.33,-514.26"/>
<text text-anchor="start" x="43" y="-501.71" font-family="Helvetica,sans-Serif" font-size="9.00">currencies.test.ts</text>
</a>
</g>
</g>
<!-- test/currency/currencies.test.ts&#45;&gt;src/index.ts -->
<g id="edge23" class="edge">
<title>test/currency/currencies.test.ts&#45;&gt;src/index.ts</title>
<path fill="none" stroke="#000000" stroke-width="2" stroke-opacity="0.200000" d="M119.71,-497.55C126.95,-494.33 133.63,-489.78 138.25,-483.38 155.93,-458.86 127.88,-235.4 146.25,-211.38 149.25,-207.47 153.3,-204.61 157.77,-202.54"/>
<polygon fill="#000000" fill-opacity="0.200000" stroke="#000000" stroke-width="2" stroke-opacity="0.200000" points="159.18,-204.56 164.13,-200.58 157.78,-200.6 159.18,-204.56"/>
</g>
<!-- test/currency/mixins/Linked.test.ts -->
<g id="node16" class="node">
<title>test/currency/mixins/Linked.test.ts</title>
<g id="a_node16"><a xlink:href="test/currency/mixins/Linked.test.ts" xlink:title="Linked.test.ts">
<path fill="#ddfeff" stroke="black" d="M105.83,-548.26C105.83,-548.26 48.42,-548.26 48.42,-548.26 45.46,-548.26 42.5,-545.3 42.5,-542.34 42.5,-542.34 42.5,-536.42 42.5,-536.42 42.5,-533.47 45.46,-530.51 48.42,-530.51 48.42,-530.51 105.83,-530.51 105.83,-530.51 108.79,-530.51 111.75,-533.47 111.75,-536.42 111.75,-536.42 111.75,-542.34 111.75,-542.34 111.75,-545.3 108.79,-548.26 105.83,-548.26"/>
<text text-anchor="start" x="50.5" y="-535.71" font-family="Helvetica,sans-Serif" font-size="9.00">Linked.test.ts</text>
</a>
</g>
</g>
<!-- test/currency/mixins/Linked.test.ts&#45;&gt;src/index.ts -->
<g id="edge24" class="edge">
<title>test/currency/mixins/Linked.test.ts&#45;&gt;src/index.ts</title>
<path fill="none" stroke="#000000" stroke-width="2" stroke-opacity="0.200000" d="M112.19,-539.64C122.04,-537.92 131.85,-534.11 138.25,-526.38 160.58,-499.42 125.03,-239.23 146.25,-211.38 149.24,-207.46 153.29,-204.6 157.76,-202.53"/>
<polygon fill="#000000" fill-opacity="0.200000" stroke="#000000" stroke-width="2" stroke-opacity="0.200000" points="159.16,-204.55 164.12,-200.57 157.76,-200.59 159.16,-204.55"/>
</g>
<!-- test/utils.ts -->
<g id="node17" class="node">
<title>test/utils.ts</title>
<g id="a_node17"><a xlink:href="test/utils.ts" xlink:title="utils.ts">
<path fill="#ddfeff" stroke="black" d="M214.58,-587.26C214.58,-587.26 172.42,-587.26 172.42,-587.26 169.46,-587.26 166.5,-584.3 166.5,-581.34 166.5,-581.34 166.5,-575.42 166.5,-575.42 166.5,-572.47 169.46,-569.51 172.42,-569.51 172.42,-569.51 214.58,-569.51 214.58,-569.51 217.54,-569.51 220.5,-572.47 220.5,-575.42 220.5,-575.42 220.5,-581.34 220.5,-581.34 220.5,-584.3 217.54,-587.26 214.58,-587.26"/>
<text text-anchor="start" x="180.75" y="-574.71" font-family="Helvetica,sans-Serif" font-size="9.00">utils.ts</text>
</a>
</g>
</g>
<!-- test/currency/mixins/Linked.test.ts&#45;&gt;test/utils.ts -->
<g id="edge25" class="edge">
<title>test/currency/mixins/Linked.test.ts&#45;&gt;test/utils.ts</title>
<path fill="none" stroke="#000000" stroke-width="2" stroke-opacity="0.200000" d="M112.21,-545.3C120.82,-547.19 129.97,-549.55 138.25,-552.38 148.24,-555.8 158.79,-560.57 167.91,-565.1"/>
<polygon fill="#000000" fill-opacity="0.200000" stroke="#000000" stroke-width="2" stroke-opacity="0.200000" points="167.53,-567.28 173.83,-568.14 169.44,-563.54 167.53,-567.28"/>
</g>
<!-- test/e2e.test.ts -->
<g id="node18" class="node">
<title>test/e2e.test.ts</title>
<g id="a_node18"><a xlink:href="test/e2e.test.ts" xlink:title="e2e.test.ts">
<path fill="#ddfeff" stroke="black" d="M99.83,-626.26C99.83,-626.26 54.42,-626.26 54.42,-626.26 51.46,-626.26 48.5,-623.3 48.5,-620.34 48.5,-620.34 48.5,-614.42 48.5,-614.42 48.5,-611.47 51.46,-608.51 54.42,-608.51 54.42,-608.51 99.83,-608.51 99.83,-608.51 102.79,-608.51 105.75,-611.47 105.75,-614.42 105.75,-614.42 105.75,-620.34 105.75,-620.34 105.75,-623.3 102.79,-626.26 99.83,-626.26"/>
<text text-anchor="start" x="56.5" y="-613.71" font-family="Helvetica,sans-Serif" font-size="9.00">e2e.test.ts</text>
</a>
</g>
</g>
<!-- test/e2e.test.ts&#45;&gt;src/index.ts -->
<g id="edge26" class="edge">
<title>test/e2e.test.ts&#45;&gt;src/index.ts</title>
<path fill="none" stroke="#000000" stroke-width="2" stroke-opacity="0.200000" d="M102.08,-608.08C115.25,-601.6 130.46,-591.55 138.25,-577.38 148.05,-559.56 133.95,-227.58 146.25,-211.38 149.23,-207.46 153.28,-204.6 157.75,-202.52"/>
<polygon fill="#000000" fill-opacity="0.200000" stroke="#000000" stroke-width="2" stroke-opacity="0.200000" points="159.15,-204.54 164.11,-200.56 157.75,-200.58 159.15,-204.54"/>
</g>
<!-- test/e2e.test.ts&#45;&gt;test/utils.ts -->
<g id="edge27" class="edge">
<title>test/e2e.test.ts&#45;&gt;test/utils.ts</title>
<path fill="none" stroke="#000000" stroke-width="2" stroke-opacity="0.200000" d="M105.52,-608.04C121.17,-602.71 140.94,-595.96 157.68,-590.26"/>
<polygon fill="#000000" fill-opacity="0.200000" stroke="#000000" stroke-width="2" stroke-opacity="0.200000" points="159.11,-591.3 164.12,-587.38 157.76,-587.33 159.11,-591.3"/>
</g>
<!-- test/producer/mixins/Diminishing.test.ts -->
<g id="node19" class="node">
<title>test/producer/mixins/Diminishing.test.ts</title>
<g id="a_node19"><a xlink:href="test/producer/mixins/Diminishing.test.ts" xlink:title="Diminishing.test.ts">
<path fill="#ddfeff" stroke="black" d="M116.33,-342.26C116.33,-342.26 37.92,-342.26 37.92,-342.26 34.96,-342.26 32,-339.3 32,-336.34 32,-336.34 32,-330.42 32,-330.42 32,-327.47 34.96,-324.51 37.92,-324.51 37.92,-324.51 116.33,-324.51 116.33,-324.51 119.29,-324.51 122.25,-327.47 122.25,-330.42 122.25,-330.42 122.25,-336.34 122.25,-336.34 122.25,-339.3 119.29,-342.26 116.33,-342.26"/>
<text text-anchor="start" x="40" y="-329.71" font-family="Helvetica,sans-Serif" font-size="9.00">Diminishing.test.ts</text>
</a>
</g>
</g>
<!-- test/producer/mixins/Diminishing.test.ts&#45;&gt;src/index.ts -->
<g id="edge28" class="edge">
<title>test/producer/mixins/Diminishing.test.ts&#45;&gt;src/index.ts</title>
<path fill="none" stroke="#000000" stroke-width="2" stroke-opacity="0.200000" d="M80.64,-324.17C87.33,-301.46 107.7,-242.41 146.25,-211.38 149.75,-208.56 153.82,-206.31 158.06,-204.51"/>
<polygon fill="#000000" fill-opacity="0.200000" stroke="#000000" stroke-width="2" stroke-opacity="0.200000" points="159.37,-206.56 164.32,-202.58 157.96,-202.6 159.37,-206.56"/>
</g>
<!-- test/producer/mixins/Diminishing.test.ts&#45;&gt;src/util/easings.ts -->
<g id="edge29" class="edge">
<title>test/producer/mixins/Diminishing.test.ts&#45;&gt;src/util/easings.ts</title>
<path fill="none" stroke="#000000" stroke-width="2" stroke-opacity="0.200000" d="M78.7,-324.16C81.87,-276.87 98.73,-62.14 146.25,-20.38 189.31,17.45 217.43,-9.38 274.75,-9.38 274.75,-9.38 274.75,-9.38 354.75,-9.38 421.02,-9.38 438.84,-11 502.5,-29.38 508.8,-31.2 515.36,-33.78 521.42,-36.49"/>
<polygon fill="#000000" fill-opacity="0.200000" stroke="#000000" stroke-width="2" stroke-opacity="0.200000" points="520.99,-38.54 527.32,-39.19 522.78,-34.74 520.99,-38.54"/>
</g>
<!-- test/producer/producers.test.ts -->
<g id="node20" class="node">
<title>test/producer/producers.test.ts</title>
<g id="a_node20"><a xlink:href="test/producer/producers.test.ts" xlink:title="producers.test.ts">
<path fill="#ddfeff" stroke="black" d="M112.58,-394.26C112.58,-394.26 41.67,-394.26 41.67,-394.26 38.71,-394.26 35.75,-391.3 35.75,-388.34 35.75,-388.34 35.75,-382.42 35.75,-382.42 35.75,-379.47 38.71,-376.51 41.67,-376.51 41.67,-376.51 112.58,-376.51 112.58,-376.51 115.54,-376.51 118.5,-379.47 118.5,-382.42 118.5,-382.42 118.5,-388.34 118.5,-388.34 118.5,-391.3 115.54,-394.26 112.58,-394.26"/>
<text text-anchor="start" x="43.75" y="-381.71" font-family="Helvetica,sans-Serif" font-size="9.00">producers.test.ts</text>
</a>
</g>
</g>
<!-- test/producer/producers.test.ts&#45;&gt;src/index.ts -->
<g id="edge30" class="edge">
<title>test/producer/producers.test.ts&#45;&gt;src/index.ts</title>
<path fill="none" stroke="#000000" stroke-width="2" stroke-opacity="0.200000" d="M118.99,-383.26C126.38,-381 133.3,-377.3 138.25,-371.38 161.07,-344.06 124.33,-239.43 146.25,-211.38 149.29,-207.5 153.36,-204.66 157.85,-202.59"/>
<polygon fill="#000000" fill-opacity="0.200000" stroke="#000000" stroke-width="2" stroke-opacity="0.200000" points="159.25,-204.62 164.21,-200.64 157.86,-200.66 159.25,-204.62"/>
</g>
<!-- test/schema/base.test.ts -->
<g id="node21" class="node">
<title>test/schema/base.test.ts</title>
<g id="a_node21"><a xlink:href="test/schema/base.test.ts" xlink:title="base.test.ts">
<path fill="#ddfeff" stroke="black" d="M102.08,-454.26C102.08,-454.26 52.17,-454.26 52.17,-454.26 49.21,-454.26 46.25,-451.3 46.25,-448.34 46.25,-448.34 46.25,-442.42 46.25,-442.42 46.25,-439.47 49.21,-436.51 52.17,-436.51 52.17,-436.51 102.08,-436.51 102.08,-436.51 105.04,-436.51 108,-439.47 108,-442.42 108,-442.42 108,-448.34 108,-448.34 108,-451.3 105.04,-454.26 102.08,-454.26"/>
<text text-anchor="start" x="54.25" y="-441.71" font-family="Helvetica,sans-Serif" font-size="9.00">base.test.ts</text>
</a>
</g>
</g>
<!-- test/schema/base.test.ts&#45;&gt;src/index.ts -->
<g id="edge31" class="edge">
<title>test/schema/base.test.ts&#45;&gt;src/index.ts</title>
<path fill="none" stroke="#000000" stroke-width="2" stroke-opacity="0.200000" d="M108.41,-441.47C119.6,-438.42 131.25,-433 138.25,-423.38 152.12,-404.32 131.85,-230.04 146.25,-211.38 149.26,-207.48 153.33,-204.63 157.8,-202.56"/>
<polygon fill="#000000" fill-opacity="0.200000" stroke="#000000" stroke-width="2" stroke-opacity="0.200000" points="159.21,-204.58 164.17,-200.61 157.81,-200.62 159.21,-204.58"/>
</g>
</g>
</svg>
